<svg width="23" height="23" viewBox="0 0 23 23" fill="none" xmlns="http://www.w3.org/2000/svg">
<path d="M22.2828 9.21186C22.2828 7.06371 21.5761 4.9637 20.2316 3.29872C18.9044 1.6553 17.0547 0.489479 14.9922 0.0159097C14.6741 -0.0573466 14.3626 0.128856 14.2682 0.441184L11.6316 9.21016H4.22063V7.0396C4.22063 6.69712 4.00699 6.41944 3.66451 6.41944H1.33891C0.996426 6.41944 0.71875 6.69712 0.71875 7.0396C0.71875 7.38208 0.996426 7.65976 1.33891 7.65976H2.98032V12.832C2.98032 13.9571 3.95645 14.8691 5.08149 14.8691H10.5092L11.4006 15.7605L9.5671 17.5941C9.11656 17.3108 8.58431 17.1463 8.01407 17.1463C6.40026 17.1463 5.08731 18.4594 5.08731 20.0733C5.08731 21.687 6.40026 22.9999 8.01407 22.9999C9.39121 22.9999 10.5485 22.0437 10.8587 20.7606H13.6967C14.0069 22.0437 15.1642 22.9999 16.5412 22.9999C18.1551 22.9999 19.4681 21.6871 19.4681 20.0733C19.4681 18.4594 18.1551 17.1463 16.5412 17.1463C15.971 17.1463 15.4387 17.3108 14.9882 17.594L13.1548 15.7605L14.0462 14.8691H20.3097C21.4348 14.8691 22.2828 13.957 22.2828 12.832V9.21186ZM12.292 14.8692L12.2777 14.8835L12.2634 14.8692H12.292ZM8.01399 21.7597C7.08406 21.7597 6.32755 21.0032 6.32755 20.0733C6.32755 19.1433 7.08406 18.3867 8.01399 18.3867C8.944 18.3867 9.70059 19.1433 9.70059 20.0733C9.70059 21.0032 8.944 21.7597 8.01399 21.7597ZM16.5412 21.7597C15.6113 21.7597 14.8547 21.0032 14.8547 20.0733C14.8547 19.1433 15.6113 18.3867 16.5412 18.3867C17.4712 18.3867 18.2278 19.1433 18.2278 20.0733C18.2278 21.0032 17.4712 21.7597 16.5412 21.7597ZM14.1005 18.4605C13.8911 18.7764 13.7416 19.135 13.6675 19.5204H10.8879C10.8139 19.135 10.6643 18.7764 10.4549 18.4605L12.2777 16.6376L14.1005 18.4605Z" fill="#2B2525"/>
</svg>
