<svg width="10" height="10" viewBox="0 0 10 10" fill="none" xmlns="http://www.w3.org/2000/svg">
<path d="M8.28391 10C8.24008 10 8.19625 10 8.15242 10C6.74985 9.82609 5.34729 9.34783 4.16387 8.6087C3.06811 7.91304 2.10385 6.95652 1.40257 5.86957C0.613623 4.69565 0.131491 3.30435 0 1.91304C0 1.56522 0.0876604 1.21739 0.306811 0.956522C0.525962 0.695652 0.832774 0.521739 1.18342 0.478261C1.22725 0.478261 1.27108 0.478261 1.31491 0.478261H2.62981C3.28727 0.478261 3.85706 0.956522 3.94472 1.6087C3.98855 2 4.07621 2.3913 4.2077 2.73913C4.38302 3.21739 4.25153 3.73913 3.90089 4.13043L3.59408 4.43478C4.12004 5.21739 4.77749 5.91304 5.61027 6.43478L5.91708 6.13043C6.26772 5.78261 6.83751 5.65217 7.31964 5.82609C7.67029 5.95652 8.06476 6.04348 8.45923 6.08696C9.11668 6.17391 9.59882 6.73913 9.59882 7.3913V8.69565C9.59882 9.04348 9.46733 9.3913 9.20434 9.6087C8.94136 9.82609 8.63455 10 8.28391 10ZM2.62981 1.34783H1.31491C1.18342 1.34783 1.05192 1.43478 0.964265 1.52174C0.920434 1.6087 0.876604 1.69565 0.876604 1.82609C1.00809 3.08696 1.4464 4.30435 2.14768 5.3913C2.80513 6.3913 3.63791 7.26087 4.646 7.86957C5.74176 8.56522 6.969 9 8.24008 9.13043C8.4154 9.13043 8.50306 9.08696 8.59072 9C8.67838 8.91304 8.72221 8.82609 8.72221 8.69565V7.3913C8.72221 7.17391 8.54689 7 8.32774 6.95652C7.88944 6.91304 7.45114 6.78261 7.01283 6.6087C6.83751 6.56522 6.66219 6.56522 6.5307 6.69565L5.96091 7.26087C5.82942 7.3913 5.61027 7.43478 5.43495 7.34783C4.25153 6.69565 3.28727 5.73913 2.62981 4.56522C2.58598 4.3913 2.62981 4.17391 2.7613 4.04348L3.3311 3.47826C3.41876 3.3913 3.46259 3.17391 3.41876 3.04348C3.24344 2.6087 3.15578 2.17391 3.06811 1.73913C3.06811 1.52174 2.84896 1.34783 2.62981 1.34783ZM7.84561 4.3913C7.62646 4.3913 7.45114 4.26087 7.40731 4.04348C7.27581 3.34783 6.70602 2.82609 6.00474 2.65217C5.78559 2.6087 5.61027 2.3913 5.6541 2.13043C5.69793 1.91304 5.91708 1.73913 6.18006 1.78261C7.23198 2 8.06476 2.78261 8.24008 3.82609C8.28391 4.04348 8.15242 4.30435 7.88944 4.34783C7.88944 4.34783 7.88944 4.3913 7.84561 4.3913ZM9.59882 4.34783C9.37966 4.34783 9.20434 4.17391 9.16051 3.95652C8.98519 2.34783 7.71412 1.08696 6.04857 0.869565C5.82942 0.826087 5.6541 0.608696 5.6541 0.391304C5.6541 0.173913 5.91708 0 6.13623 0C8.19625 0.217391 9.77414 1.78261 9.99329 3.82609C10.0371 4.04348 9.8618 4.26087 9.59882 4.30435C9.64265 4.34783 9.59882 4.34783 9.59882 4.34783Z" fill="#CBCBCB"/>
</svg>
