<svg width="22" height="24" viewBox="0 0 22 24" fill="none" xmlns="http://www.w3.org/2000/svg">
<path d="M16.6564 10.237V8.55184C16.6564 7.94264 16.1621 7.44833 15.5534 7.44833H12.6866C13.2662 6.69308 13.5047 5.96234 13.3959 5.23722C13.2601 4.33745 12.6248 3.62612 12.0636 2.997C11.2614 2.09775 10.8258 1.55288 11.2144 0.806315C11.339 0.5658 11.2706 0.269112 11.0526 0.108258C10.8355 -0.0531071 10.5317 -0.0321705 10.3387 0.158302C7.75989 2.6901 9.12741 4.34818 10.1262 5.55944C10.7646 6.33409 11.1491 6.84781 11.0224 7.44833H7.7221C8.3022 6.69308 8.54016 5.96234 8.43139 5.23722C8.29607 4.33745 7.66031 3.62612 7.09911 2.997C6.29637 2.09775 5.86079 1.55288 6.24939 0.806315C6.3745 0.5658 6.30607 0.269112 6.08803 0.108258C5.87049 -0.0531071 5.56665 -0.0321705 5.37363 0.158302C2.79485 2.6901 4.16288 4.34818 5.16171 5.55944C5.80002 6.33409 6.18403 6.84781 6.05739 7.44833H1.75976C1.15056 7.44833 0.65625 7.94264 0.65625 8.55184V20.138C0.65625 22.2674 2.38939 23.9995 4.51829 23.9995H12.7944C14.7446 23.9995 16.3582 22.5441 16.6161 20.6634C19.2658 20.405 21.3462 18.1653 21.3462 15.4476C21.3467 12.7448 19.2883 10.5138 16.6564 10.237ZM5.62231 19.5865C5.62231 20.1952 5.12801 20.69 4.5188 20.69C3.9096 20.69 3.41529 20.1952 3.41529 19.5865V11.3104C3.41529 10.7012 3.9096 10.2069 4.5188 10.2069C5.12801 10.2069 5.62231 10.7012 5.62231 11.3104V19.5865ZM16.6564 18.4303V12.467C18.0668 12.7279 19.1392 13.9647 19.1392 15.4487C19.1397 16.9331 18.0668 18.1694 16.6564 18.4303Z" fill="#2B2525"/>
</svg>
