<svg width="108" height="100" viewBox="0 0 108 100" fill="none" xmlns="http://www.w3.org/2000/svg">
<path d="M4.76922 22.3581L4.7692 22.3581C2.33432 23.6222 0.831998 26.1116 0.850163 28.8555C0.868328 31.5987 2.40369 34.0682 4.85506 35.3002L4.85509 35.3002L13.008 39.3953L4.76923 43.6714C2.33431 44.9348 0.831998 47.425 0.850163 50.1681C0.868328 52.912 2.40285 55.3816 4.85425 56.6136L4.85429 56.6136L13.0079 60.7088L4.76923 64.9848C2.33431 66.2482 0.831998 68.7384 0.850163 71.4815C0.868328 74.2254 2.40284 76.695 4.85428 77.9261L42.1513 96.6596C45.8613 98.5232 49.9312 99.4544 54 99.4544C58.0688 99.4544 62.1387 98.5232 65.8487 96.6596L103.146 77.9262C105.597 76.695 107.132 74.2254 107.15 71.4815C107.168 68.7384 105.667 66.2482 103.231 64.9848L94.9922 60.7087L103.146 56.6136L103.078 56.4795L103.146 56.6136C105.597 55.3816 107.132 52.912 107.15 50.1681C107.168 47.425 105.667 44.9356 103.232 43.6714L103.162 43.8046L103.232 43.6714L94.9924 39.3954L103.146 35.3002L103.078 35.1662L103.146 35.3002C105.597 34.0682 107.132 31.5986 107.15 28.8555C107.168 26.1125 105.667 23.6223 103.232 22.3581L103.162 22.4912L103.232 22.3581L66.161 3.11834L66.0919 3.25148L66.161 3.11834C58.5465 -0.833113 49.4543 -0.833934 41.8398 3.11834L4.76922 22.3581ZM6.33722 68.0074L16.7645 62.5955L42.1513 75.3462C45.8613 77.2098 49.9312 78.1411 54 78.1411C58.0688 78.1411 62.1387 77.2098 65.8487 75.3462L91.2354 62.5956L101.663 68.0073C102.977 68.6898 103.754 69.9782 103.744 71.4593C103.734 72.9404 102.94 74.2186 101.617 74.8832L64.3198 93.6158L64.3871 93.7498L64.3198 93.6158C57.8585 96.8619 50.1415 96.8619 43.6802 93.6158L43.6129 93.7498L43.6802 93.6158L6.38316 74.8832C5.05955 74.2186 4.26574 72.9404 4.25562 71.4593C4.24629 69.9781 5.02299 68.6898 6.33722 68.0074ZM101.617 32.2564L91.2601 37.4584L73.5235 28.2531L73.4544 28.3863L73.5234 28.2531C72.689 27.8204 71.6611 28.1449 71.2282 28.9805C70.7947 29.815 71.1202 30.8429 71.9547 31.2757L87.5033 39.3453L69.6549 48.3101C69.6264 48.3235 69.5981 48.3377 69.5703 48.3527L64.3198 50.9899C57.8585 54.236 50.1415 54.236 43.6802 50.9899L41.3659 49.8274L43.4078 48.7676C49.602 45.5526 56.8208 45.3124 63.2125 48.1087C64.0737 48.4856 65.0784 48.0928 65.4553 47.2316L65.4554 47.2315C65.8322 46.3695 65.4394 45.3655 64.5774 44.9886C57.2389 41.7783 48.9506 42.054 41.8398 45.7442L41.9089 45.8774L41.8398 45.7443L37.6091 47.9405L20.4967 39.3453L43.4086 27.4543C50.0387 24.0129 57.9563 24.012 64.5862 27.4516L64.5893 27.4535L64.6124 27.4676C64.6218 27.4733 64.6332 27.4801 64.6465 27.4879C64.6617 27.4968 64.6793 27.507 64.6991 27.5184C64.7738 27.561 64.881 27.6199 65.0121 27.6854C65.2736 27.8159 65.6337 27.9744 66.0232 28.082C66.4108 28.1891 66.84 28.2493 67.2341 28.1711C67.6356 28.0915 67.996 27.8684 68.2294 27.425L68.2294 27.4249C68.4644 26.978 68.4432 26.5539 68.2781 26.1786C68.1163 25.8105 67.8188 25.4941 67.5066 25.239C67.1928 24.9825 66.8535 24.7796 66.5943 24.6412C66.4643 24.5718 66.3536 24.5182 66.2751 24.4818C66.2586 24.4741 66.2435 24.4672 66.2299 24.4611C66.2112 24.4527 66.1954 24.4457 66.1829 24.4402L66.1578 24.4294L66.1547 24.4281C58.5414 20.4795 49.4525 20.4804 41.8398 24.4309L41.9089 24.5641L41.8398 24.4309L16.7399 37.4584L6.38316 32.2564L6.38314 32.2564C5.05955 31.5919 4.26574 30.3137 4.25562 28.8325C4.24549 27.3514 5.02292 26.0631 6.33725 25.3806L43.4078 6.14089C50.0404 2.69862 57.9596 2.69863 64.5914 6.14089L64.6605 6.00775L64.5914 6.14089L101.663 25.3806C102.977 26.0631 103.754 27.3514 103.744 28.8325C103.734 30.3137 102.94 31.5919 101.617 32.2564L101.683 32.3882L101.617 32.2564ZM16.7647 41.2823L42.1513 54.0336L42.2187 53.8996L42.1514 54.0336C45.8613 55.8964 49.9312 56.8285 54 56.8285C58.0688 56.8285 62.1387 55.8964 65.8486 54.0336L65.7813 53.8996L65.8487 54.0336L70.3662 51.7645L87.5034 60.6587L64.3198 72.3032C57.8585 75.5486 50.1423 75.5486 43.6802 72.3032L20.4965 60.6586L32.0195 54.6781C32.0195 54.6781 32.0195 54.6781 32.0195 54.6781C32.8541 54.2452 33.1794 53.2173 32.7468 52.3821L32.7467 52.3819C32.3131 51.5474 31.2861 51.2219 30.4507 51.6556L16.7399 58.7718L6.38317 53.5698C5.06032 52.9052 4.26574 51.627 4.25562 50.1459C4.2463 48.6648 5.02375 47.3765 6.33803 46.694C6.33804 46.694 6.33805 46.694 6.33806 46.694L16.7647 41.2823ZM101.617 53.5698L91.2602 58.7717L74.1237 49.8772L91.2356 41.2824L101.663 46.694C102.977 47.3765 103.755 48.6648 103.744 50.1459C103.734 51.627 102.94 52.9052 101.617 53.5698L101.684 53.7039L101.617 53.5698Z" fill="#2B2525" stroke="#2B2525" stroke-width="0.3"/>
</svg>
