<svg width="98" height="98" viewBox="0 0 98 98" fill="none" xmlns="http://www.w3.org/2000/svg">
<path fill-rule="evenodd" clip-rule="evenodd" d="M78.9066 55.925V11.8582C78.9066 5.31975 73.5842 0 67.0424 0C60.4999 0 55.1775 5.31975 55.1775 11.8582V55.925C50.9464 58.5195 47.6602 62.4396 45.8597 67.0722C45.4767 68.0576 45.9651 69.1672 46.9511 69.55C47.9363 69.9321 49.0464 69.4438 49.4294 68.4584C51.0429 64.3088 54.0898 60.8455 58.0096 58.7079C58.6253 58.3729 59.0075 57.7284 59.0075 57.0278V11.8582C59.0075 7.43045 62.6116 3.82812 67.0424 3.82812C71.4724 3.82812 75.0765 7.43045 75.0765 11.8582V57.0278C75.0765 57.7284 75.4595 58.3729 76.0744 58.7079C82.1539 62.0231 85.9308 68.3784 85.9308 75.2929C85.9308 85.7029 77.4568 94.1719 67.0416 94.1719C59.187 94.1719 52.2735 89.4443 49.4294 82.1267C49.0464 81.1413 47.937 80.6531 46.9511 81.0359C45.9651 81.4187 45.4759 82.5275 45.8589 83.5129C47.5248 87.7979 50.4116 91.4354 54.208 94.0313C58.0044 96.6273 62.4426 98 67.0424 98C79.5694 98 89.7609 87.8136 89.7609 75.2929C89.7609 67.3623 85.6301 60.0432 78.9066 55.925Z" fill="black"/>
<path fill-rule="evenodd" clip-rule="evenodd" d="M67.0424 16.7249C65.9846 16.7249 65.1274 17.5817 65.1274 18.6389V62.2182C58.7412 63.1491 53.8212 68.6565 53.8212 75.2929C53.8212 82.5791 59.7518 88.5074 67.0424 88.5074C74.3322 88.5074 80.2636 82.5791 80.2636 75.2929C80.2636 68.6565 75.3428 63.1491 68.9574 62.2182V18.6389C68.9574 17.5817 68.1001 16.7249 67.0424 16.7249ZM76.4335 75.2929C76.4335 80.4684 72.2204 84.6793 67.0424 84.6793C61.8636 84.6793 57.6513 80.4684 57.6513 75.2929C57.6513 70.1167 61.8636 65.9058 67.0424 65.9058C72.2204 65.9058 76.4335 70.1167 76.4335 75.2929Z" fill="black"/>
<path fill-rule="evenodd" clip-rule="evenodd" d="M86.1358 22.0095H96.085C97.1427 22.0095 98 21.1526 98 20.0954C98 19.0382 97.1427 18.1814 96.085 18.1814H86.1358C85.0781 18.1814 84.2208 19.0382 84.2208 20.0954C84.2208 21.1526 85.0781 22.0095 86.1358 22.0095Z" fill="black"/>
<path fill-rule="evenodd" clip-rule="evenodd" d="M96.085 27.0219H86.1358C85.0781 27.0219 84.2208 27.8788 84.2208 28.936C84.2208 29.9925 85.0781 30.8501 86.1358 30.8501H96.085C97.1427 30.8501 98 29.9925 98 28.936C98 27.8788 97.1427 27.0219 96.085 27.0219Z" fill="black"/>
<path fill-rule="evenodd" clip-rule="evenodd" d="M96.085 35.8618H86.1358C85.0781 35.8618 84.2208 36.7186 84.2208 37.7758C84.2208 38.833 85.0781 39.6899 86.1358 39.6899H96.085C97.1427 39.6899 98 38.833 98 37.7758C98 36.7186 97.1427 35.8618 96.085 35.8618Z" fill="black"/>
<path fill-rule="evenodd" clip-rule="evenodd" d="M96.085 44.7016H86.1358C85.0781 44.7016 84.2208 45.5592 84.2208 46.6156C84.2208 47.6729 85.0781 48.5297 86.1358 48.5297H96.085C97.1427 48.5297 98 47.6729 98 46.6156C98 45.5584 97.1427 44.7016 96.085 44.7016Z" fill="black"/>
<path fill-rule="evenodd" clip-rule="evenodd" d="M26.0474 18.9769C21.4401 18.9769 17.0774 21.2095 14.3769 24.9479C13.7583 25.8047 13.9513 27.001 14.8085 27.6201C15.6666 28.2384 16.8635 28.0455 17.4821 27.1887C19.4652 24.4439 22.6669 22.805 26.0474 22.805C31.8672 22.805 36.6024 27.5378 36.6024 33.3555C36.6024 39.1732 31.8672 43.9061 26.0474 43.9061C22.6661 43.9061 19.4645 42.2671 17.4821 39.5224C16.8635 38.6656 15.6666 38.4727 14.8085 39.091C13.9513 39.7101 13.7583 40.9064 14.3769 41.7632C17.0774 45.5023 21.4401 47.7342 26.0474 47.7342C33.979 47.7342 40.4325 41.2839 40.4325 33.3555C40.4325 25.4271 33.9798 18.9769 26.0474 18.9769Z" fill="black"/>
<path fill-rule="evenodd" clip-rule="evenodd" d="M26.0474 15.6796C27.1051 15.6796 27.9624 14.8228 27.9624 13.7655V9.23535C27.9624 8.17888 27.1051 7.32129 26.0474 7.32129C24.9896 7.32129 24.1323 8.17888 24.1323 9.23535V13.7655C24.1323 14.8228 24.9896 15.6796 26.0474 15.6796Z" fill="black"/>
<path fill-rule="evenodd" clip-rule="evenodd" d="M10.8341 20.8566C11.2081 21.2304 11.6981 21.4173 12.1881 21.4173C12.6781 21.4173 13.1681 21.2304 13.5421 20.8566C14.2901 20.1096 14.2901 18.8976 13.5421 18.1499L10.3374 14.9469C9.58935 14.1992 8.37675 14.1992 7.62944 14.9469C6.88138 15.6938 6.88138 16.9058 7.62944 17.6535L10.8341 20.8566Z" fill="black"/>
<path fill-rule="evenodd" clip-rule="evenodd" d="M43.7322 33.3555C43.7322 34.4128 44.5895 35.2696 45.6472 35.2696H50.1797C51.2374 35.2696 52.0947 34.4128 52.0947 33.3555C52.0947 32.2983 51.2374 31.4415 50.1797 31.4415H45.6472C44.5895 31.4415 43.7322 32.2983 43.7322 33.3555Z" fill="black"/>
<path fill-rule="evenodd" clip-rule="evenodd" d="M39.9066 21.4173C40.3966 21.4173 40.8866 21.2304 41.2606 20.8573L44.4653 17.6535C45.2133 16.9066 45.2133 15.6946 44.4653 14.9469C43.718 14.1992 42.5054 14.1992 41.7573 14.9469L38.5526 18.1499C37.8046 18.8976 37.8046 20.1096 38.5526 20.8573C38.9259 21.2304 39.4166 21.4173 39.9066 21.4173Z" fill="black"/>
<path fill-rule="evenodd" clip-rule="evenodd" d="M8.36253 33.3555C8.36253 32.2983 7.50526 31.4415 6.44751 31.4415H1.91503C0.857274 31.4415 0 32.2983 0 33.3555C0 34.4128 0.857274 35.2696 1.91503 35.2696H6.44751C7.50526 35.2696 8.36253 34.4128 8.36253 33.3555Z" fill="black"/>
<path fill-rule="evenodd" clip-rule="evenodd" d="M26.0474 51.0314C24.9896 51.0314 24.1323 51.8883 24.1323 52.9455V57.4757C24.1323 58.5329 24.9896 59.3898 26.0474 59.3898C27.1051 59.3898 27.9624 58.5329 27.9624 57.4757V52.9455C27.9624 51.8883 27.1051 51.0314 26.0474 51.0314Z" fill="black"/>
<path fill-rule="evenodd" clip-rule="evenodd" d="M44.4653 49.0576L41.2606 45.8545C40.5125 45.1068 39.2999 45.1068 38.5526 45.8545C37.8046 46.6022 37.8046 47.8142 38.5526 48.5619L41.7573 51.7649C42.1313 52.138 42.6213 52.3249 43.1113 52.3249C43.6013 52.3249 44.0912 52.138 44.4653 51.7649C45.2133 51.0172 45.2133 49.8053 44.4653 49.0576Z" fill="black"/>
<path fill-rule="evenodd" clip-rule="evenodd" d="M10.8341 45.8545L7.62944 49.0576C6.88138 49.8045 6.88138 51.0165 7.62944 51.7642C8.00272 52.138 8.49344 52.3249 8.98342 52.3249C9.4734 52.3249 9.96338 52.138 10.3374 51.7642L13.5421 48.5611C14.2901 47.8142 14.2901 46.6022 13.5421 45.8545C12.794 45.1068 11.5822 45.1068 10.8341 45.8545Z" fill="black"/>
<path fill-rule="evenodd" clip-rule="evenodd" d="M48.1539 75.2929C48.1539 74.2387 47.2937 73.3789 46.2389 73.3789C45.1842 73.3789 44.3231 74.2387 44.3231 75.2929C44.3231 76.3472 45.1842 77.207 46.2389 77.207C47.2937 77.207 48.1539 76.3472 48.1539 75.2929Z" fill="black"/>
<path fill-rule="evenodd" clip-rule="evenodd" d="M11.6615 33.3555C11.6615 34.4098 12.5217 35.2696 13.5765 35.2696C14.6313 35.2696 15.4915 34.4098 15.4915 33.3555C15.4915 32.3013 14.6313 31.4415 13.5765 31.4415C12.5217 31.4415 11.6615 32.3013 11.6615 33.3555Z" fill="black"/>
</svg>
