<svg width="98" height="98" viewBox="0 0 98 98" fill="none" xmlns="http://www.w3.org/2000/svg">
<path d="M69.5283 36.1233C69.5224 36.1155 69.5166 36.1078 69.5107 36.1004L50.5989 11.751C50.2371 11.2853 49.681 11.0124 49.0916 11.011C49.09 11.011 49.0872 11.011 49.0872 11.011C48.4993 11.011 47.9438 11.2813 47.581 11.7441L28.5859 35.9658C28.5518 36.0093 28.5199 36.0539 28.49 36.0996C24.6835 40.7872 22.5901 46.6861 22.5901 52.7372C22.5901 67.2984 34.4376 79.145 49.0003 79.145C63.5629 79.145 75.4104 67.2984 75.4104 52.7372C75.4104 46.702 73.3222 40.8051 69.5283 36.1233ZM49.0001 75.317C36.5482 75.317 26.418 65.1876 26.418 52.737C26.418 47.4998 28.2519 42.3959 31.5817 38.3657C31.6363 38.2996 31.6859 38.2305 31.7303 38.1591L49.0799 16.0358L66.4429 38.3907C66.4655 38.4223 66.4891 38.4529 66.5138 38.4832C69.7823 42.4933 71.5823 47.5555 71.5823 52.737C71.5823 65.1876 61.4519 75.317 49.0001 75.317Z" fill="#2B2525"/>
<path d="M66.2203 54.4112C65.1914 54.1683 64.1606 54.8059 63.918 55.8347C62.8277 60.4597 59.5459 64.3025 55.14 66.1148C54.1626 66.5169 53.6959 67.6353 54.0983 68.6128C54.4025 69.3522 55.1161 69.799 55.8692 69.799C56.1117 69.799 56.3584 69.7526 56.5968 69.6546C62.1414 67.374 66.2714 62.536 67.6445 56.7131C67.8867 55.6843 67.249 54.6537 66.2203 54.4112Z" fill="#2B2525"/>
<path d="M66.2266 46.6472C65.1698 46.6472 64.3126 47.5041 64.3126 48.5611V48.5999C64.3126 49.6569 65.1698 50.5138 66.2266 50.5138C67.2835 50.5138 68.1407 49.6569 68.1407 48.5999V48.5611C68.1407 47.5041 67.2835 46.6472 66.2266 46.6472Z" fill="#2B2525"/>
<path d="M72.4893 6.30456L69.8141 1.67119C69.2856 0.755882 68.1156 0.442168 67.1994 0.97064C66.4173 1.42217 66.0767 2.34168 66.3227 3.17105C57.1799 -0.281539 47.1511 -0.934618 37.5607 1.37011C26.0398 4.13899 15.921 10.9777 9.06916 20.6271C2.2839 30.1827 -0.863707 41.8393 0.207126 53.4494C0.298627 54.4423 1.13286 55.1878 2.11085 55.1876C2.16981 55.1876 2.22915 55.1849 2.28887 55.1794C3.34152 55.0823 4.11622 54.1506 4.01917 53.0978C1.97551 30.9391 16.7798 10.3011 38.455 5.092C47.9017 2.82192 57.8091 3.66583 66.6887 7.44323L65.2412 8.27911C64.3256 8.80777 64.012 9.97803 64.5406 10.8935C64.8953 11.5076 65.5385 11.8506 66.2 11.8506C66.5247 11.8506 66.8539 11.7679 67.1552 11.5939L71.7889 8.91879C72.7043 8.3905 73.018 7.21986 72.4893 6.30456Z" fill="#2B2525"/>
<path d="M97.5681 42.5186C97.4274 41.471 96.4636 40.7353 95.4163 40.8763C94.3686 41.017 93.6334 41.9802 93.7741 43.0279C96.7356 65.0829 82.8008 86.3175 61.36 92.4217C52.1795 95.0355 42.6557 94.7111 33.7357 91.4966L35.5456 90.3491C36.4384 89.7829 36.7029 88.6006 36.1371 87.7079C35.571 86.8152 34.3886 86.5507 33.4954 87.1164L28.977 89.9814C28.0848 90.5472 27.8198 91.7286 28.3847 92.6213L31.2213 97.1023C31.5856 97.6779 32.206 97.9929 32.8404 97.9929C33.1903 97.9929 33.5446 97.897 33.8622 97.6959C34.5023 97.2908 34.8178 96.569 34.7385 95.8637C39.3787 97.2845 44.1471 98 48.936 98C53.4398 98 57.9619 97.3689 62.4085 96.103C73.8048 92.8586 83.6306 85.6057 90.0761 75.6803C96.4592 65.8514 99.12 54.0742 97.5681 42.5186Z" fill="#2B2525"/>
<path d="M25.8755 71.7764C25.873 71.7731 25.8709 71.7701 25.8684 71.7668L16.1155 58.9399C15.7543 58.465 15.1928 58.1858 14.5962 58.1842C14.5946 58.1842 14.5918 58.1842 14.5918 58.1842C13.997 58.1842 13.4358 58.4608 13.0734 58.9328L3.27739 71.6923C3.25461 71.7222 3.23279 71.7523 3.21192 71.7831C1.13936 74.4055 0 77.6966 0 81.0707C0 89.2407 6.52588 95.8874 14.5468 95.8874C22.5677 95.8874 29.0936 89.2405 29.0936 81.0707C29.0936 77.6969 27.9512 74.3986 25.8755 71.7764ZM14.5468 92.0597C8.63634 92.0597 3.82812 87.13 3.82812 81.0707C3.82812 78.5144 4.70294 76.0252 6.29157 74.0616C6.3335 74.0097 6.37255 73.9559 6.40834 73.9006L14.5845 63.2509L22.7882 74.0403C22.8074 74.0669 22.8271 74.0931 22.8478 74.1188C24.4069 76.0729 25.2658 78.5418 25.2658 81.0707C25.2655 87.13 20.4572 92.0597 14.5468 92.0597Z" fill="#2B2525"/>
<path d="M20.8632 79.1568C19.8064 79.1568 18.9492 80.0138 18.9492 81.0707C18.9492 83.5728 16.9744 85.6084 14.5468 85.6084C13.4899 85.6084 12.6327 86.4653 12.6327 87.5222C12.6327 88.5792 13.4899 89.4361 14.5468 89.4361C19.0851 89.4361 22.7773 85.6834 22.7773 81.0707C22.7773 80.0138 21.9203 79.1568 20.8632 79.1568Z" fill="#2B2525"/>
<path d="M94.7819 13.5919C94.7794 13.5887 94.7773 13.5856 94.7748 13.5824L85.0219 0.755672C84.6607 0.280793 84.099 0.00153125 83.5026 0C83.501 0 83.4982 0 83.4982 0C82.9034 0 82.3423 0.276582 81.9798 0.74859L72.1838 13.5081C72.1612 13.5374 72.1398 13.5674 72.1189 13.5979C70.0459 16.2203 68.9064 19.5118 68.9064 22.8863C68.9064 31.0562 75.4323 37.703 83.4532 37.703C91.4743 37.703 98 31.056 98 22.8863C98 19.5125 96.8573 16.2142 94.7819 13.5919ZM83.4532 33.8753C77.5427 33.8753 72.7345 28.9456 72.7345 22.8863C72.7345 20.33 73.6095 17.841 75.1978 15.8771C75.2395 15.8255 75.2782 15.7723 75.3138 15.7173L83.4909 5.06652L91.6946 15.8559C91.7138 15.8825 91.7335 15.9087 91.7541 15.9344C93.3133 17.8884 94.1722 20.3574 94.1722 22.8863C94.1718 28.9458 89.3634 33.8753 83.4532 33.8753Z" fill="#2B2525"/>
<path d="M89.7694 20.9726C88.7126 20.9726 87.8554 21.8295 87.8554 22.8865C87.8554 25.3885 85.8806 27.4241 83.453 27.4241C82.3961 27.4241 81.5389 28.281 81.5389 29.338C81.5389 30.3949 82.3961 31.2519 83.453 31.2519C87.9913 31.2519 91.6835 27.4992 91.6835 22.8865C91.6835 21.8293 90.8265 20.9726 89.7694 20.9726Z" fill="#2B2525"/>
</svg>
