<svg width="92" height="98" viewBox="0 0 92 98" fill="none" xmlns="http://www.w3.org/2000/svg">
<path d="M47.2936 81.305L47.2085 81.3903H47.329H89.5894C90.8931 81.3903 91.9502 82.4507 91.95 83.7587C91.95 85.0666 90.893 86.1269 89.5892 86.1269H27.0636C24.8231 86.1269 22.717 85.2517 21.1328 83.6627L6.87825 69.3649C4.15544 66.6338 2.65604 63.0027 2.65604 59.1405C2.65604 55.2781 4.15544 51.6472 6.87825 48.9161L54.2 1.44946C56.0606 -0.416485 59.0875 -0.416485 60.9481 1.44945L90.5527 31.1468C92.413 33.013 92.4128 36.0494 90.5525 37.9156L47.2936 81.305ZM18.027 44.5025L17.9916 44.467L17.9562 44.5025L10.217 52.2653C6.43763 56.0561 6.43763 62.2243 10.217 66.0153L24.4712 80.3131C25.1639 81.0075 26.0845 81.3903 27.0638 81.3903H40.51H40.5307L40.5454 81.3756L87.2139 34.5666L87.2491 34.5313L87.2139 34.496L57.6096 4.7985L57.5742 4.76298L57.5387 4.7985L21.3657 41.0826L21.3306 41.1179L21.3657 41.1532L46.8087 66.6743C47.7307 67.5994 47.7306 69.0988 46.8085 70.0237C46.3477 70.4859 45.7435 70.7172 45.1393 70.7172C44.5352 70.7172 43.9311 70.486 43.4701 70.0237L18.027 44.5025ZM2.41083 80.1812H8.63656C9.94016 80.1812 10.9974 81.2416 10.9976 82.5494C10.9976 83.8573 9.94054 84.9176 8.63675 84.9176H2.41083C1.10704 84.9176 0.05 83.8573 0.05 82.5494C0.05 81.2414 1.10704 80.1812 2.41083 80.1812ZM15.5684 89.4912C16.4904 88.5664 17.985 88.5667 18.907 89.4912C19.8293 90.4162 19.8291 91.9157 18.9068 92.8406L14.5046 97.2563C14.0438 97.7187 13.4395 97.95 12.8354 97.95C12.2312 97.95 11.6272 97.7186 11.1662 97.2563C10.2439 96.3312 10.2441 94.8318 11.1662 93.9069L15.5684 89.4912Z" fill="#2B2525" stroke="#FFF9C1" stroke-width="0.1"/>
</svg>
