<svg width="117" height="111" viewBox="0 0 117 111" fill="none" xmlns="http://www.w3.org/2000/svg">
<mask id="path-1-outside-1" maskUnits="userSpaceOnUse" x="0" y="0" width="117" height="111" fill="black">
<rect fill="white" width="117" height="111"/>
<path d="M42.9923 92.9071C41.1682 92.6246 39.2933 92.5553 37.4262 92.7132C38.5677 83.4156 34.0518 74.3101 25.8474 69.6039C30.3747 61.9399 30.5677 52.5827 26.6888 44.8591C31.0968 42.0734 34.472 37.8804 36.2303 32.9802C36.5541 32.0783 36.0873 31.0868 35.1862 30.7631C34.2843 30.4393 33.2928 30.907 32.9691 31.808C31.3995 36.1748 28.3277 39.8799 24.3146 42.2471C23.0915 42.9683 22.5993 44.5432 23.3021 45.8646C27.045 52.8196 26.9029 61.489 22.4888 68.451C21.6605 69.7451 22.094 71.5262 23.503 72.272C31.0836 76.2746 35.2634 84.6176 33.864 93.1431C33.5604 94.8821 35.059 96.485 36.8734 96.2587C38.7387 96.0209 40.6339 96.0507 42.4606 96.3324C42.5501 96.3464 42.6405 96.3534 42.7282 96.3534C43.5679 96.3534 44.3075 95.741 44.4391 94.8856C44.5874 93.9406 43.9372 93.0554 42.9923 92.9071Z"/>
<path d="M30.9652 16.5802C31.2442 17.2426 31.8873 17.641 32.5638 17.641C33.7991 17.641 34.6423 16.3776 34.1606 15.2343L28.6129 2.06133C28.2418 1.17869 27.2258 0.764562 26.3423 1.13657C25.4605 1.5077 25.0464 2.52459 25.4175 3.40723L30.9652 16.5802Z"/>
<path d="M2.21252 40.1835C20.4612 45.9391 19.2232 45.5864 19.6092 45.5864C21.5772 45.5864 22.015 42.7937 20.1295 42.1988L3.25572 36.8767C2.34149 36.5889 1.36848 37.096 1.0807 38.0085C0.792915 38.9218 1.29916 39.8957 2.21252 40.1835Z"/>
<path d="M17.6773 70.0864L1.72735 81.4607C0.355123 82.439 1.05703 84.6061 2.73546 84.6061C3.52159 84.6061 2.41258 85.2308 19.69 72.9089C20.47 72.3535 20.6507 71.2708 20.0953 70.4909C19.5399 69.7126 18.4572 69.5301 17.6773 70.0864Z"/>
<path d="M34.4045 97.3923C33.4806 97.1352 32.526 97.6757 32.2698 98.5978L29.4956 108.567C29.1894 109.669 30.0176 110.766 31.167 110.766C31.9259 110.766 32.6225 110.264 32.8366 109.497L35.61 99.5269C35.8671 98.6048 35.3275 97.6493 34.4045 97.3923Z"/>
<path d="M17.7141 26.8693C28.8665 34.1375 28.2383 33.8541 28.9455 33.8541C30.6625 33.8541 31.3363 31.608 29.893 30.6674L19.6066 23.9643C18.8047 23.4413 17.7308 23.6677 17.2079 24.4696C16.6849 25.2724 16.9113 26.3463 17.7141 26.8693Z"/>
<path d="M11.1715 55.7509C10.2134 55.7509 9.43777 56.5273 9.43777 57.4846C9.43777 58.4427 10.2134 59.2183 11.1715 59.2183H20.2208C21.178 59.2183 21.9545 58.4427 21.9545 57.4846C21.9545 56.5273 21.178 55.7509 20.2208 55.7509H11.1715Z"/>
<path d="M28.04 80.1262C27.2679 79.5612 26.1826 79.7279 25.6167 80.5L21.2148 86.5101C20.6489 87.283 20.8165 88.3675 21.5886 88.9334C22.3607 89.4984 23.4451 89.3317 24.0119 88.5587L28.4138 82.5496C28.9797 81.7766 28.8121 80.6921 28.04 80.1262Z"/>
<path d="M114.266 49.6391C115.224 49.6391 116 48.8652 116 47.9053V47.4667C116 44.1791 113.326 41.5031 110.036 41.5031H89.4795C85.7883 36.9355 80.2863 33.8866 74.0753 33.4566C72.4039 29.8532 71.8432 25.798 72.5039 21.827C72.789 20.0257 71.2685 18.4868 69.4919 18.7105C64.346 19.3685 59.1028 18.0323 54.8317 14.7351C53.8718 13.9928 52.5101 13.9814 51.5354 14.7351C47.2511 18.0402 42.0123 19.3659 36.8735 18.7105C35.0766 18.4955 33.5763 20.0239 33.864 21.8384C34.0755 23.115 34.1597 24.4424 34.1273 25.5672C34.1045 26.5236 34.8625 27.3167 35.8189 27.3395C36.7831 27.365 37.5719 26.6052 37.5947 25.648C37.6087 24.531 37.5833 23.537 37.4262 22.2569C42.9309 22.7236 48.5084 21.2628 53.184 17.8349C57.8209 21.2356 63.3905 22.7289 68.9391 22.2569C68.489 25.9252 68.9084 29.7708 70.2911 33.4058C68.8996 33.4058 70.206 33.4075 66.2991 33.4075C63.0817 33.4075 60.0653 34.9842 58.2298 37.626L55.1089 42.1173H51.2722C45.2042 42.1173 42.7335 49.9681 47.7074 53.4486C45.32 56.4212 46.143 60.8853 49.5472 62.7787C47.2704 66.0329 48.6251 70.5865 52.2847 72.0842C50.021 75.9175 52.4443 81.5669 57.4366 81.5669C63.3247 81.5669 67.4274 81.5687 70.3096 81.5687C68.947 85.1256 68.4758 88.9387 68.9391 92.7132C63.4063 92.242 57.8341 93.7248 53.184 97.1352C52.2013 96.4184 51.1607 95.7735 50.0842 95.219C49.2331 94.7794 48.1882 95.1146 47.7495 95.9648C47.3099 96.8158 47.6451 97.8608 48.4961 98.2995C49.5613 98.8496 50.5834 99.4997 51.5354 100.235C52.511 100.99 53.8727 100.976 54.8317 100.235C61.8218 94.8391 69.0409 96.2797 69.8384 96.2797C71.5107 96.2797 72.7855 94.7601 72.5013 93.1308C71.8397 89.1458 72.4179 85.1405 74.0735 81.5669C76.2029 81.5652 81.9094 82.0644 87.2606 77.8539C87.6835 77.6854 90.4762 75.034 91.3474 73.467H110.036C113.326 73.467 116 70.7901 116 67.5034V54.8402C116 53.8838 115.224 53.1065 114.266 53.1065C113.309 53.1065 112.533 53.8838 112.533 54.8402V67.5034C112.533 68.8783 111.411 69.9995 110.036 69.9995H93.1294C94.5999 66.1628 94.3103 64.0632 94.3103 55.1551C94.3103 51.4772 93.3935 48.0098 91.7747 44.9705H110.036C111.411 44.9705 112.533 46.0909 112.533 47.4667V47.9053C112.533 48.8652 113.309 49.6391 114.266 49.6391ZM48.5119 48.3475C48.5119 46.8235 49.7508 45.5847 51.2722 45.5847H53.1857C52.7286 47.6465 54.0087 50.3076 57.5296 51.1069H51.2722C49.7508 51.1069 48.5119 49.868 48.5119 48.3475ZM63.6108 78.0995C63.5669 78.0995 57.3954 78.1013 57.3515 78.0969C54.0324 77.9258 54.1219 72.5773 57.4831 72.5773H63.6108C67.0413 72.5773 67.0387 78.0995 63.6108 78.0995ZM63.9389 69.0888C58.7009 69.0888 59.9214 69.0888 54.6606 69.0888C53.1375 69.0888 51.8986 67.8517 51.8986 66.3286C51.8986 64.923 52.9453 63.5692 54.8782 63.5692H63.9389C65.4629 63.5692 66.6992 64.8055 66.6992 66.3286C66.6992 67.8517 65.4629 69.0888 63.9389 69.0888ZM63.9389 60.0966C51.4222 60.0966 52.1592 60.1869 51.4108 59.8404C48.7409 58.6059 49.6192 54.5743 52.5707 54.5743H63.9389C65.4629 54.5743 66.6992 55.8132 66.6992 57.3372C66.6992 58.8577 65.4629 60.0966 63.9389 60.0966ZM63.9389 51.1069H60.7935C63.7336 50.4462 64.9444 48.4879 65.7542 47.3438H66.5096C67.2168 49.1468 65.8788 51.1069 63.9389 51.1069ZM85.3461 74.9506C83.1053 76.808 79.8528 78.0995 76.1187 78.0995C72.7706 78.0995 72.3249 78.0995 69.069 78.0995C69.9884 76.1623 69.97 73.1134 68.017 71.0278C70.793 68.6291 70.8948 64.3615 68.2407 61.8329C70.807 59.3824 70.8088 55.2938 68.2433 52.8406C68.4285 52.6678 68.6013 52.48 68.7636 52.2817C70.8097 55.6631 73.7533 57.9066 77.476 59.0841C78.3911 59.371 79.3615 58.8603 79.6484 57.947C79.9353 57.0345 79.4264 56.0606 78.514 55.7746C76.396 55.1025 74.5763 53.9803 73.1093 52.337C69.9814 48.8538 69.7208 44.6143 69.5936 43.8764C69.376 42.6814 67.8827 41.9374 66.6 42.055C64.804 42.2261 64.3302 43.3474 62.3307 46.1813C60.4785 48.8398 56.5838 47.7764 56.5838 46.3638C56.5838 45.9576 56.3829 46.3638 61.0778 39.6053C62.2657 37.8944 64.2188 36.8749 66.2991 36.8749C73.1119 36.8749 74.0262 36.767 76.3986 37.2776C84.6442 39.0456 90.8438 46.3919 90.8438 55.1551C90.8438 63.6061 91.923 69.7565 85.3461 74.9506Z"/>
</mask>
<path d="M42.9923 92.9071C41.1682 92.6246 39.2933 92.5553 37.4262 92.7132C38.5677 83.4156 34.0518 74.3101 25.8474 69.6039C30.3747 61.9399 30.5677 52.5827 26.6888 44.8591C31.0968 42.0734 34.472 37.8804 36.2303 32.9802C36.5541 32.0783 36.0873 31.0868 35.1862 30.7631C34.2843 30.4393 33.2928 30.907 32.9691 31.808C31.3995 36.1748 28.3277 39.8799 24.3146 42.2471C23.0915 42.9683 22.5993 44.5432 23.3021 45.8646C27.045 52.8196 26.9029 61.489 22.4888 68.451C21.6605 69.7451 22.094 71.5262 23.503 72.272C31.0836 76.2746 35.2634 84.6176 33.864 93.1431C33.5604 94.8821 35.059 96.485 36.8734 96.2587C38.7387 96.0209 40.6339 96.0507 42.4606 96.3324C42.5501 96.3464 42.6405 96.3534 42.7282 96.3534C43.5679 96.3534 44.3075 95.741 44.4391 94.8856C44.5874 93.9406 43.9372 93.0554 42.9923 92.9071Z" fill="#2B2525"/>
<path d="M30.9652 16.5802C31.2442 17.2426 31.8873 17.641 32.5638 17.641C33.7991 17.641 34.6423 16.3776 34.1606 15.2343L28.6129 2.06133C28.2418 1.17869 27.2258 0.764562 26.3423 1.13657C25.4605 1.5077 25.0464 2.52459 25.4175 3.40723L30.9652 16.5802Z" fill="#2B2525"/>
<path d="M2.21252 40.1835C20.4612 45.9391 19.2232 45.5864 19.6092 45.5864C21.5772 45.5864 22.015 42.7937 20.1295 42.1988L3.25572 36.8767C2.34149 36.5889 1.36848 37.096 1.0807 38.0085C0.792915 38.9218 1.29916 39.8957 2.21252 40.1835Z" fill="#2B2525"/>
<path d="M17.6773 70.0864L1.72735 81.4607C0.355123 82.439 1.05703 84.6061 2.73546 84.6061C3.52159 84.6061 2.41258 85.2308 19.69 72.9089C20.47 72.3535 20.6507 71.2708 20.0953 70.4909C19.5399 69.7126 18.4572 69.5301 17.6773 70.0864Z" fill="#2B2525"/>
<path d="M34.4045 97.3923C33.4806 97.1352 32.526 97.6757 32.2698 98.5978L29.4956 108.567C29.1894 109.669 30.0176 110.766 31.167 110.766C31.9259 110.766 32.6225 110.264 32.8366 109.497L35.61 99.5269C35.8671 98.6048 35.3275 97.6493 34.4045 97.3923Z" fill="#2B2525"/>
<path d="M17.7141 26.8693C28.8665 34.1375 28.2383 33.8541 28.9455 33.8541C30.6625 33.8541 31.3363 31.608 29.893 30.6674L19.6066 23.9643C18.8047 23.4413 17.7308 23.6677 17.2079 24.4696C16.6849 25.2724 16.9113 26.3463 17.7141 26.8693Z" fill="#2B2525"/>
<path d="M11.1715 55.7509C10.2134 55.7509 9.43777 56.5273 9.43777 57.4846C9.43777 58.4427 10.2134 59.2183 11.1715 59.2183H20.2208C21.178 59.2183 21.9545 58.4427 21.9545 57.4846C21.9545 56.5273 21.178 55.7509 20.2208 55.7509H11.1715Z" fill="#2B2525"/>
<path d="M28.04 80.1262C27.2679 79.5612 26.1826 79.7279 25.6167 80.5L21.2148 86.5101C20.6489 87.283 20.8165 88.3675 21.5886 88.9334C22.3607 89.4984 23.4451 89.3317 24.0119 88.5587L28.4138 82.5496C28.9797 81.7766 28.8121 80.6921 28.04 80.1262Z" fill="#2B2525"/>
<path d="M114.266 49.6391C115.224 49.6391 116 48.8652 116 47.9053V47.4667C116 44.1791 113.326 41.5031 110.036 41.5031H89.4795C85.7883 36.9355 80.2863 33.8866 74.0753 33.4566C72.4039 29.8532 71.8432 25.798 72.5039 21.827C72.789 20.0257 71.2685 18.4868 69.4919 18.7105C64.346 19.3685 59.1028 18.0323 54.8317 14.7351C53.8718 13.9928 52.5101 13.9814 51.5354 14.7351C47.2511 18.0402 42.0123 19.3659 36.8735 18.7105C35.0766 18.4955 33.5763 20.0239 33.864 21.8384C34.0755 23.115 34.1597 24.4424 34.1273 25.5672C34.1045 26.5236 34.8625 27.3167 35.8189 27.3395C36.7831 27.365 37.5719 26.6052 37.5947 25.648C37.6087 24.531 37.5833 23.537 37.4262 22.2569C42.9309 22.7236 48.5084 21.2628 53.184 17.8349C57.8209 21.2356 63.3905 22.7289 68.9391 22.2569C68.489 25.9252 68.9084 29.7708 70.2911 33.4058C68.8996 33.4058 70.206 33.4075 66.2991 33.4075C63.0817 33.4075 60.0653 34.9842 58.2298 37.626L55.1089 42.1173H51.2722C45.2042 42.1173 42.7335 49.9681 47.7074 53.4486C45.32 56.4212 46.143 60.8853 49.5472 62.7787C47.2704 66.0329 48.6251 70.5865 52.2847 72.0842C50.021 75.9175 52.4443 81.5669 57.4366 81.5669C63.3247 81.5669 67.4274 81.5687 70.3096 81.5687C68.947 85.1256 68.4758 88.9387 68.9391 92.7132C63.4063 92.242 57.8341 93.7248 53.184 97.1352C52.2013 96.4184 51.1607 95.7735 50.0842 95.219C49.2331 94.7794 48.1882 95.1146 47.7495 95.9648C47.3099 96.8158 47.6451 97.8608 48.4961 98.2995C49.5613 98.8496 50.5834 99.4997 51.5354 100.235C52.511 100.99 53.8727 100.976 54.8317 100.235C61.8218 94.8391 69.0409 96.2797 69.8384 96.2797C71.5107 96.2797 72.7855 94.7601 72.5013 93.1308C71.8397 89.1458 72.4179 85.1405 74.0735 81.5669C76.2029 81.5652 81.9094 82.0644 87.2606 77.8539C87.6835 77.6854 90.4762 75.034 91.3474 73.467H110.036C113.326 73.467 116 70.7901 116 67.5034V54.8402C116 53.8838 115.224 53.1065 114.266 53.1065C113.309 53.1065 112.533 53.8838 112.533 54.8402V67.5034C112.533 68.8783 111.411 69.9995 110.036 69.9995H93.1294C94.5999 66.1628 94.3103 64.0632 94.3103 55.1551C94.3103 51.4772 93.3935 48.0098 91.7747 44.9705H110.036C111.411 44.9705 112.533 46.0909 112.533 47.4667V47.9053C112.533 48.8652 113.309 49.6391 114.266 49.6391ZM48.5119 48.3475C48.5119 46.8235 49.7508 45.5847 51.2722 45.5847H53.1857C52.7286 47.6465 54.0087 50.3076 57.5296 51.1069H51.2722C49.7508 51.1069 48.5119 49.868 48.5119 48.3475ZM63.6108 78.0995C63.5669 78.0995 57.3954 78.1013 57.3515 78.0969C54.0324 77.9258 54.1219 72.5773 57.4831 72.5773H63.6108C67.0413 72.5773 67.0387 78.0995 63.6108 78.0995ZM63.9389 69.0888C58.7009 69.0888 59.9214 69.0888 54.6606 69.0888C53.1375 69.0888 51.8986 67.8517 51.8986 66.3286C51.8986 64.923 52.9453 63.5692 54.8782 63.5692H63.9389C65.4629 63.5692 66.6992 64.8055 66.6992 66.3286C66.6992 67.8517 65.4629 69.0888 63.9389 69.0888ZM63.9389 60.0966C51.4222 60.0966 52.1592 60.1869 51.4108 59.8404C48.7409 58.6059 49.6192 54.5743 52.5707 54.5743H63.9389C65.4629 54.5743 66.6992 55.8132 66.6992 57.3372C66.6992 58.8577 65.4629 60.0966 63.9389 60.0966ZM63.9389 51.1069H60.7935C63.7336 50.4462 64.9444 48.4879 65.7542 47.3438H66.5096C67.2168 49.1468 65.8788 51.1069 63.9389 51.1069ZM85.3461 74.9506C83.1053 76.808 79.8528 78.0995 76.1187 78.0995C72.7706 78.0995 72.3249 78.0995 69.069 78.0995C69.9884 76.1623 69.97 73.1134 68.017 71.0278C70.793 68.6291 70.8948 64.3615 68.2407 61.8329C70.807 59.3824 70.8088 55.2938 68.2433 52.8406C68.4285 52.6678 68.6013 52.48 68.7636 52.2817C70.8097 55.6631 73.7533 57.9066 77.476 59.0841C78.3911 59.371 79.3615 58.8603 79.6484 57.947C79.9353 57.0345 79.4264 56.0606 78.514 55.7746C76.396 55.1025 74.5763 53.9803 73.1093 52.337C69.9814 48.8538 69.7208 44.6143 69.5936 43.8764C69.376 42.6814 67.8827 41.9374 66.6 42.055C64.804 42.2261 64.3302 43.3474 62.3307 46.1813C60.4785 48.8398 56.5838 47.7764 56.5838 46.3638C56.5838 45.9576 56.3829 46.3638 61.0778 39.6053C62.2657 37.8944 64.2188 36.8749 66.2991 36.8749C73.1119 36.8749 74.0262 36.767 76.3986 37.2776C84.6442 39.0456 90.8438 46.3919 90.8438 55.1551C90.8438 63.6061 91.923 69.7565 85.3461 74.9506Z" fill="#2B2525"/>
<path d="M42.9923 92.9071C41.1682 92.6246 39.2933 92.5553 37.4262 92.7132C38.5677 83.4156 34.0518 74.3101 25.8474 69.6039C30.3747 61.9399 30.5677 52.5827 26.6888 44.8591C31.0968 42.0734 34.472 37.8804 36.2303 32.9802C36.5541 32.0783 36.0873 31.0868 35.1862 30.7631C34.2843 30.4393 33.2928 30.907 32.9691 31.808C31.3995 36.1748 28.3277 39.8799 24.3146 42.2471C23.0915 42.9683 22.5993 44.5432 23.3021 45.8646C27.045 52.8196 26.9029 61.489 22.4888 68.451C21.6605 69.7451 22.094 71.5262 23.503 72.272C31.0836 76.2746 35.2634 84.6176 33.864 93.1431C33.5604 94.8821 35.059 96.485 36.8734 96.2587C38.7387 96.0209 40.6339 96.0507 42.4606 96.3324C42.5501 96.3464 42.6405 96.3534 42.7282 96.3534C43.5679 96.3534 44.3075 95.741 44.4391 94.8856C44.5874 93.9406 43.9372 93.0554 42.9923 92.9071Z" stroke="#2B2525" stroke-width="0.4" mask="url(#path-1-outside-1)"/>
<path d="M30.9652 16.5802C31.2442 17.2426 31.8873 17.641 32.5638 17.641C33.7991 17.641 34.6423 16.3776 34.1606 15.2343L28.6129 2.06133C28.2418 1.17869 27.2258 0.764562 26.3423 1.13657C25.4605 1.5077 25.0464 2.52459 25.4175 3.40723L30.9652 16.5802Z" stroke="#2B2525" stroke-width="0.4" mask="url(#path-1-outside-1)"/>
<path d="M2.21252 40.1835C20.4612 45.9391 19.2232 45.5864 19.6092 45.5864C21.5772 45.5864 22.015 42.7937 20.1295 42.1988L3.25572 36.8767C2.34149 36.5889 1.36848 37.096 1.0807 38.0085C0.792915 38.9218 1.29916 39.8957 2.21252 40.1835Z" stroke="#2B2525" stroke-width="0.4" mask="url(#path-1-outside-1)"/>
<path d="M17.6773 70.0864L1.72735 81.4607C0.355123 82.439 1.05703 84.6061 2.73546 84.6061C3.52159 84.6061 2.41258 85.2308 19.69 72.9089C20.47 72.3535 20.6507 71.2708 20.0953 70.4909C19.5399 69.7126 18.4572 69.5301 17.6773 70.0864Z" stroke="#2B2525" stroke-width="0.4" mask="url(#path-1-outside-1)"/>
<path d="M34.4045 97.3923C33.4806 97.1352 32.526 97.6757 32.2698 98.5978L29.4956 108.567C29.1894 109.669 30.0176 110.766 31.167 110.766C31.9259 110.766 32.6225 110.264 32.8366 109.497L35.61 99.5269C35.8671 98.6048 35.3275 97.6493 34.4045 97.3923Z" stroke="#2B2525" stroke-width="0.4" mask="url(#path-1-outside-1)"/>
<path d="M17.7141 26.8693C28.8665 34.1375 28.2383 33.8541 28.9455 33.8541C30.6625 33.8541 31.3363 31.608 29.893 30.6674L19.6066 23.9643C18.8047 23.4413 17.7308 23.6677 17.2079 24.4696C16.6849 25.2724 16.9113 26.3463 17.7141 26.8693Z" stroke="#2B2525" stroke-width="0.4" mask="url(#path-1-outside-1)"/>
<path d="M11.1715 55.7509C10.2134 55.7509 9.43777 56.5273 9.43777 57.4846C9.43777 58.4427 10.2134 59.2183 11.1715 59.2183H20.2208C21.178 59.2183 21.9545 58.4427 21.9545 57.4846C21.9545 56.5273 21.178 55.7509 20.2208 55.7509H11.1715Z" stroke="#2B2525" stroke-width="0.4" mask="url(#path-1-outside-1)"/>
<path d="M28.04 80.1262C27.2679 79.5612 26.1826 79.7279 25.6167 80.5L21.2148 86.5101C20.6489 87.283 20.8165 88.3675 21.5886 88.9334C22.3607 89.4984 23.4451 89.3317 24.0119 88.5587L28.4138 82.5496C28.9797 81.7766 28.8121 80.6921 28.04 80.1262Z" stroke="#2B2525" stroke-width="0.4" mask="url(#path-1-outside-1)"/>
<path d="M114.266 49.6391C115.224 49.6391 116 48.8652 116 47.9053V47.4667C116 44.1791 113.326 41.5031 110.036 41.5031H89.4795C85.7883 36.9355 80.2863 33.8866 74.0753 33.4566C72.4039 29.8532 71.8432 25.798 72.5039 21.827C72.789 20.0257 71.2685 18.4868 69.4919 18.7105C64.346 19.3685 59.1028 18.0323 54.8317 14.7351C53.8718 13.9928 52.5101 13.9814 51.5354 14.7351C47.2511 18.0402 42.0123 19.3659 36.8735 18.7105C35.0766 18.4955 33.5763 20.0239 33.864 21.8384C34.0755 23.115 34.1597 24.4424 34.1273 25.5672C34.1045 26.5236 34.8625 27.3167 35.8189 27.3395C36.7831 27.365 37.5719 26.6052 37.5947 25.648C37.6087 24.531 37.5833 23.537 37.4262 22.2569C42.9309 22.7236 48.5084 21.2628 53.184 17.8349C57.8209 21.2356 63.3905 22.7289 68.9391 22.2569C68.489 25.9252 68.9084 29.7708 70.2911 33.4058C68.8996 33.4058 70.206 33.4075 66.2991 33.4075C63.0817 33.4075 60.0653 34.9842 58.2298 37.626L55.1089 42.1173H51.2722C45.2042 42.1173 42.7335 49.9681 47.7074 53.4486C45.32 56.4212 46.143 60.8853 49.5472 62.7787C47.2704 66.0329 48.6251 70.5865 52.2847 72.0842C50.021 75.9175 52.4443 81.5669 57.4366 81.5669C63.3247 81.5669 67.4274 81.5687 70.3096 81.5687C68.947 85.1256 68.4758 88.9387 68.9391 92.7132C63.4063 92.242 57.8341 93.7248 53.184 97.1352C52.2013 96.4184 51.1607 95.7735 50.0842 95.219C49.2331 94.7794 48.1882 95.1146 47.7495 95.9648C47.3099 96.8158 47.6451 97.8608 48.4961 98.2995C49.5613 98.8496 50.5834 99.4997 51.5354 100.235C52.511 100.99 53.8727 100.976 54.8317 100.235C61.8218 94.8391 69.0409 96.2797 69.8384 96.2797C71.5107 96.2797 72.7855 94.7601 72.5013 93.1308C71.8397 89.1458 72.4179 85.1405 74.0735 81.5669C76.2029 81.5652 81.9094 82.0644 87.2606 77.8539C87.6835 77.6854 90.4762 75.034 91.3474 73.467H110.036C113.326 73.467 116 70.7901 116 67.5034V54.8402C116 53.8838 115.224 53.1065 114.266 53.1065C113.309 53.1065 112.533 53.8838 112.533 54.8402V67.5034C112.533 68.8783 111.411 69.9995 110.036 69.9995H93.1294C94.5999 66.1628 94.3103 64.0632 94.3103 55.1551C94.3103 51.4772 93.3935 48.0098 91.7747 44.9705H110.036C111.411 44.9705 112.533 46.0909 112.533 47.4667V47.9053C112.533 48.8652 113.309 49.6391 114.266 49.6391ZM48.5119 48.3475C48.5119 46.8235 49.7508 45.5847 51.2722 45.5847H53.1857C52.7286 47.6465 54.0087 50.3076 57.5296 51.1069H51.2722C49.7508 51.1069 48.5119 49.868 48.5119 48.3475ZM63.6108 78.0995C63.5669 78.0995 57.3954 78.1013 57.3515 78.0969C54.0324 77.9258 54.1219 72.5773 57.4831 72.5773H63.6108C67.0413 72.5773 67.0387 78.0995 63.6108 78.0995ZM63.9389 69.0888C58.7009 69.0888 59.9214 69.0888 54.6606 69.0888C53.1375 69.0888 51.8986 67.8517 51.8986 66.3286C51.8986 64.923 52.9453 63.5692 54.8782 63.5692H63.9389C65.4629 63.5692 66.6992 64.8055 66.6992 66.3286C66.6992 67.8517 65.4629 69.0888 63.9389 69.0888ZM63.9389 60.0966C51.4222 60.0966 52.1592 60.1869 51.4108 59.8404C48.7409 58.6059 49.6192 54.5743 52.5707 54.5743H63.9389C65.4629 54.5743 66.6992 55.8132 66.6992 57.3372C66.6992 58.8577 65.4629 60.0966 63.9389 60.0966ZM63.9389 51.1069H60.7935C63.7336 50.4462 64.9444 48.4879 65.7542 47.3438H66.5096C67.2168 49.1468 65.8788 51.1069 63.9389 51.1069ZM85.3461 74.9506C83.1053 76.808 79.8528 78.0995 76.1187 78.0995C72.7706 78.0995 72.3249 78.0995 69.069 78.0995C69.9884 76.1623 69.97 73.1134 68.017 71.0278C70.793 68.6291 70.8948 64.3615 68.2407 61.8329C70.807 59.3824 70.8088 55.2938 68.2433 52.8406C68.4285 52.6678 68.6013 52.48 68.7636 52.2817C70.8097 55.6631 73.7533 57.9066 77.476 59.0841C78.3911 59.371 79.3615 58.8603 79.6484 57.947C79.9353 57.0345 79.4264 56.0606 78.514 55.7746C76.396 55.1025 74.5763 53.9803 73.1093 52.337C69.9814 48.8538 69.7208 44.6143 69.5936 43.8764C69.376 42.6814 67.8827 41.9374 66.6 42.055C64.804 42.2261 64.3302 43.3474 62.3307 46.1813C60.4785 48.8398 56.5838 47.7764 56.5838 46.3638C56.5838 45.9576 56.3829 46.3638 61.0778 39.6053C62.2657 37.8944 64.2188 36.8749 66.2991 36.8749C73.1119 36.8749 74.0262 36.767 76.3986 37.2776C84.6442 39.0456 90.8438 46.3919 90.8438 55.1551C90.8438 63.6061 91.923 69.7565 85.3461 74.9506Z" stroke="#2B2525" stroke-width="0.4" mask="url(#path-1-outside-1)"/>
</svg>
