<svg width="98" height="98" viewBox="0 0 98 98" fill="none" xmlns="http://www.w3.org/2000/svg">
<path d="M96.6183 42.5772L96.6033 42.5249C96.4498 41.8899 95.9787 41.3685 95.3453 41.1585C95.1102 41.0804 89.4941 39.254 81.4754 39.8166C74.0935 40.3341 63.1816 43.0628 53.1166 53.124C43.0518 63.1855 40.3223 74.0933 39.805 81.4721C39.2428 89.4882 41.0698 95.1017 41.1479 95.3368C41.3383 95.9102 41.7884 96.36 42.3619 96.5503C42.5658 96.6181 46.8142 98 53.1675 98C54.1415 98 55.1655 97.9675 56.2315 97.8928C63.613 97.3755 74.5247 94.647 84.5897 84.5859C102.398 66.7833 97.7342 46.4687 96.6183 42.5772ZM76.9545 44.2616C78.4681 43.9695 80.0096 43.7635 81.5791 43.647C85.4576 43.3591 88.7431 43.6952 90.9805 44.0761C90.885 44.1417 90.7934 44.2156 90.7086 44.3004L76.9545 58.0497V44.2616ZM73.125 45.2067V61.8778L60.2907 74.7075V52.0832C60.2907 52.0206 60.2873 51.9589 60.2813 51.8979C64.2531 48.8241 68.5448 46.5891 73.125 45.2067ZM43.6249 81.7397C44.3111 71.9539 48.4155 63.2369 55.8244 55.8309C56.0356 55.62 56.2479 55.4123 56.4612 55.2065V78.4504C56.4612 78.4778 56.4641 78.5042 56.4653 78.5312L44.0551 90.937C43.6827 88.7413 43.3583 85.542 43.6249 81.7397ZM56.1275 94.0622C52.2729 94.3482 49.0037 94.0178 46.7671 93.6396L52.7484 87.6605C52.7549 87.6605 52.761 87.6614 52.7675 87.6614H74.8433C69.1741 91.4109 62.9089 93.5588 56.1275 94.0622ZM81.8819 81.8787C81.2021 82.5582 80.5109 83.2095 79.8092 83.8335H56.5769L67.69 72.7243H88.9672C87.2071 75.7773 84.8968 78.8648 81.8819 81.8787ZM90.9091 68.8962H71.5193L93.4162 47.0071C93.498 46.9254 93.569 46.8373 93.6328 46.7458C94.427 51.3639 94.9287 59.7591 90.9091 68.8962Z" fill="#2B2525"/>
<path d="M44.8834 53.1236C34.8184 43.0624 23.9065 40.3337 16.5246 39.8162C8.50629 39.254 2.88979 41.0802 2.65466 41.1581C2.02127 41.3683 1.55024 41.8897 1.39668 42.5248L1.38174 42.577C0.265836 46.4687 -4.39827 66.7833 13.4105 84.5857C19.0605 90.2337 25.5317 94.1597 32.644 96.254C32.8246 96.3072 33.0069 96.3325 33.1861 96.3325C34.0133 96.3325 34.7763 95.7923 35.0219 94.959C35.3208 93.9449 34.7407 92.8807 33.7264 92.5821C27.2351 90.6703 21.3109 87.0692 16.1185 81.8789C11.5927 77.3546 8.65028 72.6646 6.78245 68.1744H25.7586L35.0003 77.4128C35.3743 77.7866 35.8642 77.9734 36.3542 77.9734C36.8442 77.9734 37.3344 77.7866 37.7081 77.4128C38.4558 76.6654 38.4558 75.4534 37.7081 74.7058L35.5971 72.5959V50.354C37.8906 51.9151 40.0853 53.7415 42.1754 55.8307C42.9231 56.5781 44.1355 56.5781 44.8834 55.8307C45.6313 55.0833 45.6311 53.8713 44.8834 53.1236ZM16.2568 43.6351C17.0952 43.6939 17.9254 43.7796 18.748 43.8885V55.7528L7.18186 44.1908C7.13782 44.1467 7.09168 44.1056 7.04458 44.0667C9.24155 43.6937 12.447 43.3677 16.2568 43.6351ZM5.4228 64.3465V64.3463C3.25589 57.0496 3.70489 50.6155 4.36222 46.7742C4.39764 46.8163 4.43422 46.858 4.47385 46.8978L21.9288 64.3467L5.4228 64.3465ZM31.7678 68.768L22.5773 59.5807V44.5875C25.7768 45.34 28.8435 46.4934 31.7678 48.0428V68.768Z" fill="#2B2525"/>
<path d="M36.1465 86.0563C32.4464 84.9666 28.9337 83.22 25.7056 80.8654C24.8512 80.2422 23.6536 80.4294 23.0301 81.2832C22.4067 82.1371 22.594 83.3345 23.4481 83.9577C27.0325 86.5727 30.9407 88.5141 35.0641 89.7284C35.2446 89.7816 35.4269 89.8069 35.6061 89.8069C36.4333 89.8069 37.1963 89.2667 37.442 88.4334C37.7409 87.4191 37.1609 86.3549 36.1465 86.0563Z" fill="#2B2525"/>
<path d="M21.1007 76.9111L21.094 76.9044C20.3463 76.1574 19.1375 76.1606 18.3894 76.9079C17.6417 77.6553 17.6451 78.8708 18.3928 79.6182C18.7668 79.992 19.2568 80.1788 19.7467 80.1788C20.2367 80.1788 20.7269 79.992 21.1007 79.6182C21.8484 78.8708 21.8484 77.6588 21.1007 76.9111Z" fill="#2B2525"/>
<path d="M24.5204 24.3081H14.1527V15.9822H21.2946C22.3521 15.9822 23.2094 15.1252 23.2094 14.0681C23.2094 13.011 22.3521 12.1541 21.2946 12.1541H14.1527V3.82811H24.5202C25.5777 3.82811 26.4349 2.97119 26.4349 1.91406C26.4349 0.856923 25.5777 0 24.5202 0H12.2381C11.1806 0 10.3234 0.856923 10.3234 1.91406V26.222C10.3234 27.2791 11.1806 28.136 12.2381 28.136H24.5204C25.5779 28.136 26.4351 27.2791 26.4351 26.222C26.4351 25.1649 25.5779 24.3081 24.5204 24.3081Z" fill="#2B2525"/>
<path d="M73.5079 0.000191406C65.7481 0.000191406 59.435 6.31102 59.435 14.0681C59.435 21.8252 65.7481 28.136 73.5079 28.136C81.2678 28.136 87.5809 21.8252 87.5809 14.0681C87.5809 6.31102 81.2678 0.000191406 73.5079 0.000191406ZM73.5079 24.3081C67.8597 24.3081 63.2643 19.7146 63.2643 14.0681C63.2643 8.42165 67.8595 3.82811 73.5079 3.82811C79.1564 3.82811 83.7516 8.42165 83.7516 14.0681C83.7516 19.7146 79.1562 24.3081 73.5079 24.3081Z" fill="#2B2525"/>
<path d="M51.9744 21.3088C47.9807 25.3013 41.4817 25.3013 37.4879 21.3088C33.494 17.3165 33.494 10.82 37.4879 6.82743C41.4817 2.83491 47.9805 2.83491 51.9744 6.82743C52.7221 7.57487 53.9346 7.57487 54.6825 6.82743C55.4302 6.08 55.4302 4.86802 54.6825 4.12039C49.1954 -1.36453 40.2674 -1.36453 34.7803 4.12039C29.2932 9.60549 29.2932 18.5305 34.7803 24.0155C37.5237 26.7581 41.1275 28.1293 44.7314 28.1293C48.3353 28.1293 51.939 26.7579 54.6826 24.0157C55.4303 23.2682 55.4303 22.0562 54.6826 21.3086C53.9347 20.5614 52.7223 20.5614 51.9744 21.3088Z" fill="#2B2525"/>
<path d="M49.0129 32.6077C47.9554 32.6077 47.0982 33.4646 47.0982 34.5217V39.9345C47.0982 40.9916 47.9554 41.8485 49.0129 41.8485C50.0704 41.8485 50.9277 40.9916 50.9277 39.9345V34.5217C50.9275 33.4646 50.0702 32.6077 49.0129 32.6077Z" fill="#2B2525"/>
<path d="M60.1867 37.8807C59.4389 37.1331 58.2266 37.1332 57.4789 37.8807L53.5746 41.7834C52.8269 42.5309 52.8267 43.7429 53.5746 44.4903C53.9485 44.8641 54.4385 45.0509 54.9285 45.0509C55.4185 45.0509 55.9086 44.8639 56.2824 44.4903L60.1866 40.5875C60.9345 39.8399 60.9346 38.6279 60.1867 37.8807Z" fill="#2B2525"/>
<path d="M44.4317 41.7268L40.5211 37.8173C39.7732 37.0697 38.5609 37.0701 37.8132 37.8173C37.0655 38.5648 37.0653 39.7767 37.8132 40.5242L41.7239 44.4336C42.0978 44.8075 42.5878 44.9943 43.0778 44.9943C43.5678 44.9943 44.058 44.8073 44.4317 44.4336C45.1794 43.6862 45.1796 42.4742 44.4317 41.7268Z" fill="#2B2525"/>
</svg>
