<svg width="220" height="217" viewBox="0 0 220 217" fill="none" xmlns="http://www.w3.org/2000/svg">
<g filter="url(#filter0_d)">
<path d="M170 122.485V30L50 30.0045V122.485H77.25L109.5 147L141.75 122.485H170Z" fill="white"/>
</g>
<path fill-rule="evenodd" clip-rule="evenodd" d="M121.754 90.3038H115.448V68.4076H111.604V62.021H121.725L121.743 76.7307H137.733L138.055 58.7888H75.0593V52.4946H144.099L144.036 100.256H137.81V83.1174H121.754V90.3038ZM121.754 93.5101H85.8771L108.436 68.5372V62.0247H75.0482V68.4076H97.8411L75.0407 93.5101V99.893H121.747L121.754 93.5101Z" fill="#FFCC00"/>
<path fill-rule="evenodd" clip-rule="evenodd" d="M155.758 109.338V43.3793H63.3846V109.338H86.478L109.572 126.338L132.665 109.338H155.758ZM162.147 37V115.714H135.86L109.573 135.714L83.2867 115.714H57V37.0037L162.147 37Z" fill="#FFCC00"/>
<defs>
<filter id="filter0_d" x="0" y="0" width="220" height="217" filterUnits="userSpaceOnUse" color-interpolation-filters="sRGB">
<feFlood flood-opacity="0" result="BackgroundImageFix"/>
<feColorMatrix in="SourceAlpha" type="matrix" values="0 0 0 0 0 0 0 0 0 0 0 0 0 0 0 0 0 0 127 0"/>
<feOffset dy="20"/>
<feGaussianBlur stdDeviation="25"/>
<feColorMatrix type="matrix" values="0 0 0 0 0 0 0 0 0 0 0 0 0 0 0 0 0 0 0.5 0"/>
<feBlend mode="normal" in2="BackgroundImageFix" result="effect1_dropShadow"/>
<feBlend mode="normal" in="SourceGraphic" in2="effect1_dropShadow" result="shape"/>
</filter>
</defs>
</svg>
