<svg width="26" height="24" viewBox="0 0 26 24" fill="none" xmlns="http://www.w3.org/2000/svg">
<path d="M18.9442 1.29537L18.619 1.62115V1.29537H17.0173C16.2951 2.41133 14.7705 3.18272 13.0004 3.18272C11.2309 3.18272 9.70623 2.41133 8.98406 1.29537H7.38234V1.62115L7.05655 1.29537L1.29605 7.05911L4.44703 10.2127L7.38234 7.27609V21.9604H18.6177V7.27673L21.5537 10.2133L24.704 7.05911L18.9442 1.29537Z" fill="#2B2525"/>
<path d="M18.6177 23.2558H7.38231C6.66726 23.2558 6.08694 22.6754 6.08694 21.9604V10.4044L5.36283 11.1285C5.11995 11.372 4.79027 11.5081 4.44635 11.5081C4.10308 11.5081 3.77276 11.3714 3.52988 11.1285L0.378895 7.97494C-0.126298 7.4691 -0.126298 6.64978 0.378895 6.14329L6.1407 0.379543C6.42179 0.0978003 6.82789 -0.0388611 7.21909 0.010363C7.27285 0.00388613 7.32726 0 7.38231 0H8.98403C9.42316 0 9.83315 0.222803 10.0715 0.591336C10.5812 1.37892 11.7309 1.88735 13.0003 1.88735C14.2698 1.88735 15.4201 1.37892 15.9298 0.591336C16.1681 0.222803 16.5775 0 17.0173 0H18.619C18.674 0 18.7284 0.00323844 18.7822 0.010363C18.8353 0.00388613 18.8891 0 18.9435 0C19.2867 0 19.6171 0.136661 19.8606 0.379543L25.6211 6.14264C26.1263 6.64848 26.1263 7.4678 25.6211 7.97429L22.4708 11.1285C22.2279 11.3714 21.8982 11.5081 21.5549 11.5081C21.2117 11.5087 20.8813 11.372 20.6385 11.1292L19.9137 10.4038V21.9604C19.9131 22.6761 19.3334 23.2558 18.6177 23.2558ZM8.67768 20.665H17.3223V7.27674C17.3223 6.75276 17.6377 6.2806 18.1216 6.07981C18.606 5.87838 19.1624 5.98979 19.5335 6.36091L21.553 8.38039L22.873 7.05911L18.7284 2.91199C18.5218 2.93077 18.3185 2.89839 18.1235 2.81808C17.9881 2.76237 17.8657 2.68465 17.7595 2.59074H17.6481C16.5788 3.76952 14.865 4.47809 13.0003 4.47809C11.1356 4.47809 9.42251 3.76952 8.35254 2.59074H8.24114C8.13556 2.68465 8.01315 2.76173 7.87779 2.81808C7.68154 2.89904 7.47298 2.92753 7.27155 2.91199L3.12637 7.05976L4.44635 8.38104L6.46519 6.36091C6.83566 5.98979 7.39267 5.87903 7.87714 6.07981C8.36161 6.2806 8.67703 6.75276 8.67703 7.27674L8.67768 20.665Z" fill="#2B2525"/>
</svg>
