<svg width="18" height="13" viewBox="0 0 18 13" fill="none" xmlns="http://www.w3.org/2000/svg">
<path d="M17.5 2.06623C17.3333 1.29139 16.6667 0.688742 15.9167 0.430464C14.5 0 8.91667 0 8.91667 0C8.91667 0 3.33333 0 1.91667 0.430464C1.16667 0.602649 0.583334 1.29139 0.333334 2.06623C4.7187e-07 3.5298 0 6.45695 0 6.45695C0 6.45695 0 9.4702 0.416667 10.9338C0.583333 11.7086 1.25 12.3113 2 12.5695C3.41667 13 9 13 9 13C9 13 14.5833 13 16 12.5695C16.75 12.3974 17.3333 11.7086 17.5833 10.9338C18 9.4702 18 6.45695 18 6.45695C18 6.45695 17.9167 3.5298 17.5 2.06623ZM7.25 9.29801V3.78808L11.8333 6.54305L7.25 9.29801Z" fill="#2B2525"/>
</svg>
