<svg width="106" height="107" viewBox="0 0 106 107" fill="none" xmlns="http://www.w3.org/2000/svg">
<g clip-path="url(#clip0)">
<path fill-rule="evenodd" clip-rule="evenodd" d="M19.306 94.6785H10.4025V97.7589L15.6852 98.0329V102.276C14.2635 103.185 12.6069 103.661 10.9182 103.646C9.04083 103.676 7.2281 102.962 5.87656 101.661C4.53732 100.395 3.75084 98.5475 3.75084 96.3224C3.71139 94.4273 4.42646 92.5939 5.73928 91.2241C6.42736 90.5365 7.24531 89.992 8.14575 89.6221C9.04619 89.2522 10.0112 89.0644 10.9849 89.0693C13.4557 89.0693 15.0657 89.7543 16.8501 91.5351L19.2838 89.1064C16.8501 86.6776 14.4128 85.7186 10.9849 85.7186C9.54471 85.6884 8.11265 85.942 6.77074 86.4649C5.42884 86.9878 4.20344 87.7696 3.16469 88.7657C2.15608 89.7499 1.35693 90.9271 0.815088 92.2268C0.273247 93.5266 -0.000128821 94.9221 0.011359 96.3298C-0.0158602 98.891 0.858534 101.381 2.48208 103.364C4.36666 105.623 7.30483 106.993 10.9182 106.993C12.8854 107.044 14.8259 106.53 16.5088 105.512L16.8798 106.848L19.3134 106.404V94.6785H19.306ZM40.7078 93.6233C40.7146 92.6299 40.5211 91.6453 40.1387 90.7281C39.7563 89.8108 39.1928 88.9798 38.4819 88.2844C36.9857 86.8556 34.988 86.0687 32.9173 86.0926H22.771V106.626H26.4808V101.028H32.7874L36.1262 106.608H40.296C39.0607 104.59 37.6547 102.261 36.4193 100.277C37.529 99.8156 38.4985 99.0727 39.2313 98.1218C40.2172 96.8236 40.7396 95.2335 40.7152 93.6048L40.7078 93.6233ZM26.4733 89.4396H32.8171C33.3691 89.4331 33.9167 89.5369 34.4279 89.745C34.939 89.9531 35.4032 90.2611 35.7932 90.651C36.1831 91.0409 36.491 91.5047 36.6986 92.0152C36.9061 92.5257 37.0092 93.0725 37.0017 93.6233C36.9981 94.6851 36.6018 95.7082 35.8888 96.4964C35.5165 96.8944 35.0645 97.2098 34.5622 97.4222C34.0599 97.6346 33.5184 97.7393 32.9729 97.7293H26.4733V89.4396ZM53.5994 85.7075C52.1118 85.6811 50.6347 85.9592 49.259 86.5247C47.8834 87.0902 46.6384 87.931 45.601 88.9953C43.7317 90.9884 42.7011 93.6221 42.7222 96.352C42.7437 99.0269 43.7575 101.599 45.5677 103.572C46.6012 104.657 47.846 105.521 49.2259 106.109C50.6057 106.697 52.0915 106.998 53.5919 106.993C55.0593 107.025 56.518 106.759 57.8794 106.212C59.2409 105.664 60.4768 104.847 61.5124 103.809C63.4254 101.799 64.4723 99.1201 64.4283 96.3483C64.4585 93.5025 63.3611 90.7599 61.3751 88.7176C59.4905 86.8368 56.7787 85.7075 53.5845 85.7075H53.5994ZM46.3986 96.352C46.363 94.4528 47.0634 92.6132 48.3537 91.2167C49.0294 90.5082 49.8436 89.9455 50.7458 89.5634C51.6481 89.1813 52.6193 88.9879 53.5994 88.9953C54.5705 88.9969 55.5315 89.1915 56.4264 89.5679C57.3214 89.9442 58.1322 90.4947 58.8116 91.1871C60.065 92.6093 60.7591 94.4369 60.7653 96.3309C60.7714 98.225 60.0891 100.057 58.845 101.487C58.1714 102.198 57.3576 102.763 56.4549 103.145C55.5522 103.528 54.5799 103.719 53.5994 103.709C52.6155 103.719 51.6404 103.523 50.737 103.134C49.8335 102.745 49.0217 102.171 48.3537 101.45C47.0704 100.064 46.3703 98.2389 46.3986 96.352ZM84.8766 97.9959V86.0889H81.1669V98.2032C81.1913 98.9102 81.0726 99.6148 80.818 100.275C80.5633 100.935 80.1779 101.537 79.6847 102.045C79.1916 102.553 78.6008 102.957 77.9478 103.232C77.2948 103.507 76.5929 103.648 75.8841 103.646C75.1722 103.66 74.4652 103.524 73.8094 103.247C73.1536 102.97 72.5636 102.559 72.0779 102.039C71.5772 101.535 71.1826 100.937 70.9176 100.279C70.6525 99.6206 70.5223 98.9161 70.5346 98.2069V86.0889H66.8248V97.9996C66.8092 99.1903 67.0307 100.372 67.4765 101.477C67.9223 102.582 68.5835 103.587 69.4216 104.434C71.1356 106.038 73.3897 106.941 75.7387 106.967C78.0877 106.992 80.3608 106.137 82.1091 104.571C82.992 103.721 83.6907 102.699 84.1622 101.569C84.6338 100.439 84.8681 99.2238 84.8507 97.9996L84.8766 97.9959ZM106 93.6233C106.022 91.8663 105.414 90.1594 104.286 88.8102C103.542 87.9414 102.615 87.246 101.573 86.7727C100.53 86.2993 99.3959 86.0596 98.2505 86.0704H88.2637V106.604H92.0032V101.028H98.243C100.293 101.047 102.27 100.275 103.763 98.8733C104.466 98.1858 105.025 97.3656 105.407 96.4604C105.789 95.5553 105.987 94.5833 105.989 93.6011L106 93.6233ZM98.3877 97.7293H92.0069V89.4396H98.1095C98.7035 89.4236 99.2939 89.538 99.8387 89.7747C100.384 90.0114 100.87 90.3647 101.263 90.8095C101.956 91.5771 102.325 92.583 102.29 93.6159C102.219 94.6292 101.863 95.6018 101.263 96.4223C100.9 96.8256 100.457 97.1493 99.9618 97.3729C99.4669 97.5966 98.9309 97.7154 98.3877 97.7219V97.7293Z" fill="white"/>
<path fill-rule="evenodd" clip-rule="evenodd" d="M65.0958 53.3004H58.7891V31.4042H54.9458V25.0175H65.0661L65.0847 39.7273H81.0739L81.3966 21.7853H18.4006V15.4912H87.4399L87.3768 63.2525H81.1518V46.1139H65.0958V53.3004ZM65.0958 56.5066H29.2184L51.7776 31.5338V25.0213H18.3895V31.4042H41.1824L18.382 56.5066V62.8896H65.0884L65.0958 56.5066Z" fill="#FFCC00"/>
<path fill-rule="evenodd" clip-rule="evenodd" d="M99.0998 72.3345V6.37586H6.72586V72.3345H99.0998ZM105.488 -0.00341797V78.7101H0.341309V0.000288069L105.488 -0.00341797Z" fill="#FFCC00"/>
</g>
<defs>
<clipPath id="clip0">
<rect width="106" height="107" fill="white"/>
</clipPath>
</defs>
</svg>
