<svg width="69" height="69" viewBox="0 0 69 69" fill="none" xmlns="http://www.w3.org/2000/svg">
<path d="M63.2051 21.6074H56.3847C55.8174 19.8876 54.1964 18.6425 52.2891 18.6425H50.6719V16.2061C50.6719 15.7563 50.4474 15.3359 50.0734 15.0858L41.9934 9.6821C41.9922 9.68129 41.9908 9.68035 41.9896 9.67954L41.9874 9.67806C41.7732 9.53453 41.5156 9.45057 41.2383 9.45057H13.207C5.92457 9.45057 0 15.3753 0 22.6576C0 29.3925 5.06759 34.9656 11.59 35.7656V52.5626C11.4084 52.6993 11.2587 52.8795 11.1637 53.0964L7.39028 61.7214C7.20794 62.1381 7.2481 62.6186 7.49701 62.9992C7.74592 63.3797 8.17017 63.6094 8.625 63.6094H31.9396C32.6839 63.6094 33.2872 63.0059 33.2872 62.2617C33.2872 57.4269 29.8283 53.3861 25.2555 52.4802L27.6823 42.3335H31.1224C32.9848 42.3335 34.5 40.8184 34.5 38.9559V36.5471C34.5 36.3134 34.4761 36.0851 34.4307 35.8648H41.2383C41.5152 35.8648 41.7725 35.7809 41.9865 35.6378C41.9868 35.6376 41.987 35.6376 41.9874 35.6374L41.9896 35.6359C41.9908 35.6351 41.9922 35.6342 41.9934 35.6334L50.0734 30.2297C50.4474 29.9797 50.6719 29.5592 50.6719 29.1094V27.2675H52.2891C54.1964 27.2675 55.8174 26.0224 56.3847 24.3027H63.2051C63.9494 24.3027 64.5527 23.6992 64.5527 22.955C64.5527 22.2109 63.9494 21.6074 63.2051 21.6074ZM2.69531 22.6577C2.69531 16.8615 7.4109 12.146 13.207 12.146H15.9023V33.1695H13.207C7.4109 33.1695 2.69531 28.454 2.69531 22.6577ZM30.4669 60.9141H10.6856L13.2798 54.9844H23.3146C26.8669 54.9844 29.8329 57.543 30.4669 60.9141ZM22.53 52.2891H14.2853V50.8151H16.7437C17.488 50.8151 18.0913 50.2116 18.0913 49.4675C18.0913 48.7233 17.488 48.1198 16.7437 48.1198H14.2853V45.4245H16.7437C17.488 45.4245 18.0913 44.821 18.0913 44.0768C18.0913 43.3327 17.488 42.7292 16.7437 42.7292H14.2853V40.0339H16.7437C17.488 40.0339 18.0913 39.4304 18.0913 38.6862C18.0913 37.942 17.488 37.3386 16.7437 37.3386H14.2853V35.8646H26.4581L22.53 52.2891ZM31.8047 38.9558C31.8047 39.332 31.4986 39.6381 31.1224 39.6381H28.3271L29.2296 35.8646H31.1224C31.4986 35.8648 31.8047 36.1708 31.8047 36.5471V38.9558ZM39.8906 33.1695H18.5977V12.146H39.8906V33.1695ZM47.9766 28.3893L42.5859 31.9946V13.3209L47.9766 16.9262V28.3893ZM52.2891 24.5722H50.6719V21.3378H52.2891C53.1808 21.3378 53.9062 22.0633 53.9062 22.955C53.9062 23.8468 53.1808 24.5722 52.2891 24.5722Z" fill="black"/>
<path d="M28.8398 15.7087H21.9668C21.2225 15.7087 20.6191 16.3122 20.6191 17.0563C20.6191 17.8005 21.2225 18.404 21.9668 18.404H28.8398C29.5842 18.404 30.1875 17.8005 30.1875 17.0563C30.1875 16.3122 29.5842 15.7087 28.8398 15.7087Z" fill="black"/>
<path d="M35.4528 16.1033C35.2021 15.8526 34.8544 15.7083 34.5 15.7083C34.1456 15.7083 33.7979 15.8525 33.5472 16.1033C33.2965 16.3552 33.1523 16.7015 33.1523 17.0559C33.1523 17.4104 33.2965 17.7581 33.5472 18.0087C33.7979 18.2607 34.1456 18.4036 34.5 18.4036C34.8544 18.4036 35.2021 18.2607 35.4528 18.0087C35.7035 17.7581 35.8477 17.4104 35.8477 17.0559C35.8477 16.7015 35.7035 16.3552 35.4528 16.1033Z" fill="black"/>
<path d="M28.8398 21.0993H21.9668C21.2225 21.0993 20.6191 21.7028 20.6191 22.447C20.6191 23.1911 21.2225 23.7946 21.9668 23.7946H28.8398C29.5842 23.7946 30.1875 23.1911 30.1875 22.447C30.1875 21.7028 29.5842 21.0993 28.8398 21.0993Z" fill="black"/>
<path d="M28.8398 26.4899H21.9668C21.2225 26.4899 20.6191 27.0934 20.6191 27.8376C20.6191 28.5818 21.2225 29.1852 21.9668 29.1852H28.8398C29.5842 29.1852 30.1875 28.5818 30.1875 27.8376C30.1875 27.0934 29.5842 26.4899 28.8398 26.4899Z" fill="black"/>
<path d="M59.0273 27.2398C58.283 27.2398 57.6797 27.8433 57.6797 28.5874V39.8906C57.6797 40.6348 58.283 41.2383 59.0273 41.2383C59.7717 41.2383 60.375 40.6348 60.375 39.8906V28.5874C60.375 27.8433 59.7717 27.2398 59.0273 27.2398Z" fill="black"/>
<path d="M59.9801 44.0589C59.7295 43.8083 59.3818 43.6641 59.0273 43.6641C58.6729 43.6641 58.3252 43.8081 58.0746 44.0589C57.8239 44.3096 57.6797 44.6573 57.6797 45.0117C57.6797 45.3662 57.8239 45.7138 58.0746 45.9644C58.3252 46.215 58.6729 46.3594 59.0273 46.3594C59.3818 46.3594 59.7295 46.2152 59.9801 45.9644C60.2308 45.7138 60.375 45.3662 60.375 45.0117C60.375 44.6573 60.2308 44.3096 59.9801 44.0589Z" fill="black"/>
<path d="M67.6523 0H59.0273C58.283 0 57.6797 0.603481 57.6797 1.34766V17.0563C57.6797 17.8005 58.283 18.404 59.0273 18.404C59.7717 18.404 60.375 17.8005 60.375 17.0563V2.69531H66.3047V66.3047H60.375V50.8604C60.375 50.1162 59.7717 49.5128 59.0273 49.5128C58.283 49.5128 57.6797 50.1162 57.6797 50.8604V67.6523C57.6797 68.3965 58.283 69 59.0273 69H67.6523C68.3967 69 69 68.3965 69 67.6523V1.34766C69 0.603481 68.3967 0 67.6523 0Z" fill="black"/>
<path d="M13.207 27.2398C10.6804 27.2398 8.625 25.1843 8.625 22.6577C8.625 21.9136 8.02165 21.3101 7.27734 21.3101C6.53303 21.3101 5.92969 21.9136 5.92969 22.6577C5.92969 26.6704 9.19425 29.9351 13.207 29.9351C13.9513 29.9351 14.5547 29.3316 14.5547 28.5874C14.5547 27.8433 13.9513 27.2398 13.207 27.2398Z" fill="black"/>
<path d="M53.242 36.2424C52.7157 35.7161 51.8624 35.7161 51.3361 36.2424L49.7863 37.7922C49.2601 38.3184 49.2601 39.1718 49.7863 39.6982C50.0495 39.9612 50.3944 40.0929 50.7393 40.0929C51.0841 40.0929 51.4291 39.9612 51.6922 39.6982L53.242 38.1484C53.7683 37.6221 53.7683 36.7688 53.242 36.2424Z" fill="black"/>
<path d="M49.3242 44.2031C48.5799 44.2031 47.9766 44.8066 47.9766 45.5508V47.4818C47.9766 48.226 48.5799 48.8295 49.3242 48.8295C50.0685 48.8295 50.6719 48.226 50.6719 47.4818V45.5508C50.6719 44.8066 50.0685 44.2031 49.3242 44.2031Z" fill="black"/>
<path d="M50.2771 55.2069C49.7509 54.6807 48.8975 54.6807 48.3713 55.2069L47.6787 55.8994C47.1525 56.4257 47.1525 57.279 47.6787 57.8054C47.9419 58.0685 48.2868 58.2002 48.6317 58.2002C48.9765 58.2002 49.3215 58.0685 49.5846 57.8054L50.2771 57.1129C50.8034 56.5866 50.8034 55.7333 50.2771 55.2069Z" fill="black"/>
<path d="M54.5896 10.1148L53.3459 8.87108C52.8196 8.34496 51.9663 8.34496 51.4399 8.87108C50.9136 9.39734 50.9136 10.2507 51.4399 10.7771L52.6838 12.0208C52.947 12.2839 53.2919 12.4156 53.6367 12.4156C53.9816 12.4156 54.3266 12.2839 54.5896 12.0208C55.1159 11.4946 55.1159 10.6412 54.5896 10.1148Z" fill="black"/>
</svg>
