<svg width="70" height="70" viewBox="0 0 70 70" fill="none" xmlns="http://www.w3.org/2000/svg">
<path d="M27.1879 35.2644C31.6414 35.2644 35.2639 31.6413 35.2639 27.1883C35.2639 22.7354 31.6414 19.1123 27.1879 19.1123C22.7349 19.1123 19.1124 22.7354 19.1124 27.1883C19.1124 31.6413 22.7349 35.2644 27.1879 35.2644ZM27.1879 21.8467C30.1332 21.8467 32.5295 24.243 32.5295 27.1883C32.5295 30.1337 30.1332 32.5294 27.1879 32.5294C24.2425 32.5294 21.8467 30.1337 21.8467 27.1883C21.8467 24.243 24.2425 21.8467 27.1879 21.8467Z" fill="#2B2525"/>
<path d="M27.1884 28.5555C27.9436 28.5555 28.5556 27.943 28.5556 27.1883C28.5556 26.4332 27.9436 25.8212 27.1884 25.8212H27.1879C26.4327 25.8212 25.8207 26.4332 25.8207 27.1883C25.8207 27.943 26.4338 28.5555 27.1884 28.5555Z" fill="#2B2525"/>
<path d="M65.8984 37.1874H46.5704C47.2844 35.808 47.8478 34.3612 48.2505 32.8589H53.009C53.7641 32.8589 54.3761 32.2463 54.3761 31.4917V22.8849C54.3761 22.1297 53.7641 21.5177 53.009 21.5177H48.2521C47.7618 19.6917 47.0382 17.9454 46.0908 16.3053L49.4559 12.9397C49.9899 12.4056 49.9899 11.5399 49.4559 11.0064L43.3698 4.92026C42.8362 4.38674 41.9705 4.38621 41.4365 4.92026L38.0708 8.28535C36.4302 7.33794 34.6844 6.61429 32.8584 6.12456V1.36718C32.8584 0.612029 32.2464 0 31.4912 0H22.8844C22.1292 0 21.5172 0.612029 21.5172 1.36718V6.12456C19.6918 6.61482 17.9459 7.33847 16.3053 8.28589L12.9397 4.92026C12.4062 4.38621 11.5399 4.38621 11.0064 4.92026L4.92027 11.0064C4.38621 11.5399 4.38621 12.4056 4.92027 12.9397L8.2859 16.3053C7.33902 17.9459 6.61537 19.6912 6.12564 21.5177H1.36719C0.61203 21.5177 0 22.1297 0 22.8849V31.4917C0 32.2463 0.61203 32.8589 1.36719 32.8589H6.12457C6.6143 34.6848 7.33795 36.4307 8.28537 38.0713L4.92027 41.4364C4.66392 41.6927 4.51973 42.0404 4.51973 42.403C4.51973 42.7656 4.66392 43.1133 4.92027 43.3697L11.0064 49.4558C11.2627 49.7121 11.6104 49.8563 11.973 49.8563C12.3357 49.8563 12.6833 49.7121 12.9397 49.4558L16.3048 46.0907C17.9454 47.0381 19.6912 47.7623 21.5177 48.252V53.0089C21.5177 53.764 22.1297 54.376 22.8849 54.376H28.9844V65.8983C28.9844 68.16 30.8247 69.9999 33.0859 69.9999H50.8594C51.6145 69.9999 52.2266 69.3878 52.2266 68.6327C52.2266 67.8781 51.6145 67.2655 50.8594 67.2655H33.0859C32.3324 67.2655 31.7188 66.6524 31.7188 65.8983V41.289C31.7188 40.5354 32.3324 39.9218 33.0859 39.9218H65.8984C66.6525 39.9218 67.2656 40.5354 67.2656 41.289V65.8983C67.2656 66.6524 66.6525 67.2655 65.8984 67.2655H63.1641C62.4089 67.2655 61.7969 67.8781 61.7969 68.6327C61.7969 69.3878 62.4089 69.9999 63.1641 69.9999H65.8984C68.1602 69.9999 70 68.16 70 65.8983V41.289C70 39.0278 68.1602 37.1874 65.8984 37.1874ZM24.2516 51.6417V47.1759C24.2516 46.5313 23.8013 45.9737 23.1712 45.8386C20.9148 45.3553 18.7855 44.4725 16.842 43.2148C16.301 42.8644 15.5886 42.9403 15.1325 43.3958L11.973 46.5558L7.82021 42.403L10.9802 39.2435C11.4358 38.7875 11.5116 38.0756 11.1613 37.534C9.9041 35.5906 9.0213 33.4608 8.53745 31.2049C8.40233 30.5747 7.84531 30.1245 7.2007 30.1245H2.73438V24.252H7.20177C7.84637 24.252 8.4034 23.8013 8.53851 23.1711C9.02237 20.9147 9.90463 18.7854 11.1618 16.8425C11.5121 16.3015 11.4363 15.5891 10.9808 15.133L7.82021 11.973L11.973 7.82072L15.1336 10.9807C15.5891 11.4363 16.301 11.5121 16.8426 11.1618C18.7865 9.90408 20.9153 9.02128 23.1712 8.53743C23.8013 8.40231 24.2516 7.84529 24.2516 7.20068V2.73437H30.1241V7.20068C30.1241 7.84529 30.5743 8.40231 31.205 8.53743C33.4608 9.02128 35.5901 9.90408 37.5336 11.1612C38.0751 11.5111 38.787 11.4358 39.2431 10.9802L42.4031 7.82072L46.5554 11.973L43.3959 15.1325C42.9398 15.5886 42.8645 16.301 43.2149 16.842C44.472 18.7854 45.3548 20.9153 45.8387 23.1711C45.9738 23.8013 46.5308 24.2515 47.1754 24.2515H51.6412V30.124H47.1738C46.5292 30.124 45.9722 30.5747 45.8371 31.2049C45.3821 33.3278 44.5741 35.338 43.4328 37.1874H36.3143C39.0273 34.7089 40.7326 31.144 40.7326 27.1878C40.7326 19.7195 34.6566 13.6435 27.1878 13.6435C26.0278 13.6435 24.8743 13.7909 23.7597 14.082C23.0286 14.2727 22.5912 15.0193 22.7818 15.7499C22.9725 16.4805 23.7202 16.9184 24.4502 16.7272C25.3394 16.4954 26.2607 16.3774 27.1878 16.3774C33.149 16.3774 37.9982 21.2271 37.9982 27.1878C37.9982 33.1484 33.149 37.9981 27.1878 37.9981C21.2272 37.9981 16.3774 33.1484 16.3774 27.1878C16.3774 26.2612 16.4954 25.3399 16.7272 24.4507C16.9179 23.7196 16.4799 22.973 15.7494 22.7829C15.0193 22.5917 14.2722 23.0296 14.0815 23.7602C13.791 24.8748 13.6436 26.0283 13.6436 27.1878C13.6436 34.6565 19.7195 40.7325 27.1878 40.7325C27.8169 40.7325 28.4359 40.6882 29.0426 40.6049C29.0052 40.8276 28.9844 41.0556 28.9844 41.289V51.6417H24.2516Z" fill="#2B2525"/>
<path d="M50.8595 45.6261V44.024C50.8595 43.2688 50.2474 42.6568 49.4923 42.6568C48.7377 42.6568 48.1251 43.2688 48.1251 44.024V45.6261C46.5341 46.1906 45.3907 47.71 45.3907 49.4927V52.2271C45.3907 54.0092 46.5341 55.5292 48.1251 56.0931V63.1641C48.1251 63.9187 48.7377 64.5312 49.4923 64.5312C50.2474 64.5312 50.8595 63.9187 50.8595 63.1641V56.0931C52.451 55.5292 53.5939 54.0092 53.5939 52.2271V49.4927C53.5939 47.71 52.451 46.1906 50.8595 45.6261ZM48.1251 49.4927C48.1251 48.7386 48.7387 48.1255 49.4923 48.1255C50.2464 48.1255 50.8595 48.7386 50.8595 49.4927V52.2271C50.8595 52.9807 50.2458 53.5943 49.4923 53.5943C48.7382 53.5943 48.1251 52.9807 48.1251 52.2271V49.4927Z" fill="#2B2525"/>
<path d="M64.5314 57.6953V54.9604C64.5314 53.1783 63.388 51.6589 61.797 51.0944V44.024C61.797 43.2688 61.1844 42.6568 60.4298 42.6568C59.6746 42.6568 59.0626 43.2688 59.0626 44.024V51.0944C57.4711 51.6589 56.3282 53.1783 56.3282 54.9604V57.6953C56.3282 59.4775 57.4711 60.9974 59.0626 61.5614V63.1641C59.0626 63.9187 59.6746 64.5312 60.4298 64.5312C61.1844 64.5312 61.797 63.9187 61.797 63.1641V61.5614C63.388 60.9974 64.5314 59.4775 64.5314 57.6953ZM59.0626 54.9604C59.0626 54.2068 59.6757 53.5938 60.4298 53.5938C61.1834 53.5938 61.797 54.2068 61.797 54.9604V57.6953C61.797 58.4489 61.1834 59.0625 60.4298 59.0625C59.6757 59.0625 59.0626 58.4489 59.0626 57.6953V54.9604Z" fill="#2B2525"/>
<path d="M38.5548 64.5312C39.3099 64.5312 39.922 63.9187 39.922 63.1641V61.5614C41.5134 60.9974 42.6563 59.4775 42.6563 57.6953V54.9604C42.6563 53.1783 41.5134 51.6589 39.922 51.0944V44.024C39.922 43.2688 39.3099 42.6568 38.5548 42.6568C37.8001 42.6568 37.1876 43.2688 37.1876 44.024V51.0944C35.5966 51.6589 34.4532 53.1783 34.4532 54.9604V57.6953C34.4532 59.4775 35.5966 60.9974 37.1876 61.5614V63.1641C37.1876 63.9187 37.7996 64.5312 38.5548 64.5312ZM37.1876 54.9604C37.1876 54.2068 37.8012 53.5938 38.5548 53.5938C39.3089 53.5938 39.922 54.2068 39.922 54.9604V57.6953C39.922 58.4489 39.3089 59.0625 38.5548 59.0625C37.8012 59.0625 37.1876 58.4489 37.1876 57.6953V54.9604Z" fill="#2B2525"/>
<path d="M18.5767 19.9444C18.9265 19.9444 19.2768 19.8109 19.5439 19.5438C20.0774 19.0098 20.0774 18.1441 19.5439 17.61C19.0098 17.0765 18.1441 17.0765 17.6101 17.61L17.6095 17.6111C17.076 18.1446 17.076 19.0103 17.6101 19.5438C17.8771 19.8109 18.2269 19.9444 18.5767 19.9444Z" fill="#2B2525"/>
<path d="M57.0124 67.2656H57.0113C56.2561 67.2656 55.6446 67.8782 55.6446 68.6328C55.6446 69.388 56.2572 70 57.0124 70C57.767 70 58.3796 69.388 58.3796 68.6328C58.3796 67.8782 57.767 67.2656 57.0124 67.2656Z" fill="#2B2525"/>
</svg>
