<svg width="70" height="70" viewBox="0 0 70 70" fill="none" xmlns="http://www.w3.org/2000/svg">
<path d="M35 19.6416C35.7556 19.6416 36.3681 20.2537 36.3681 21.0088C36.3681 21.7639 35.7556 22.376 35 22.376C28.0346 22.376 22.3678 28.0388 22.3678 34.9994C22.3678 35.7543 21.7553 36.3666 20.9997 36.3666C20.2441 36.3666 19.6316 35.7543 19.6316 34.9994C19.6316 26.531 26.526 19.6416 35 19.6416Z" fill="#2B2525"/>
<path d="M39.3046 46.8714C44.2857 45.0675 47.6323 40.2964 47.6323 34.9994C47.6323 34.2443 48.2448 33.6322 49.0004 33.6322C49.756 33.6322 50.3685 34.2443 50.3685 34.9994C50.3685 41.4434 46.2968 47.2475 40.2369 49.4421C40.083 49.4979 39.9256 49.5244 39.7708 49.5244C39.2112 49.5244 38.6861 49.1788 38.4844 48.6226C38.2271 47.9128 38.5942 47.1287 39.3046 46.8714Z" fill="#2B2525"/>
<path d="M35.0001 47.6228L35.0474 47.6226C35.0507 47.6226 35.0539 47.6226 35.0573 47.6226C35.8084 47.6226 36.4198 48.2284 36.4251 48.9802C36.4305 49.7352 35.8224 50.3517 35.0667 50.357L35.0001 50.3571C34.2445 50.3571 33.632 49.7449 33.632 48.9899C33.632 48.235 34.2445 47.6228 35.0001 47.6228Z" fill="#2B2525"/>
<path d="M2.59364 29.9303L8.52979 25.9211C8.74527 25.7756 8.86334 25.5246 8.83789 25.2659C8.80971 24.979 8.63363 24.8194 8.53116 24.75C8.42869 24.6804 8.21539 24.5756 7.93808 24.6553L3.83494 25.8336C3.53792 25.9934 3.18221 26.044 2.83237 25.9505C2.12943 25.7623 1.69697 25.0572 1.84814 24.3458L1.85554 24.3112C1.87264 24.2306 1.89685 24.1525 1.92736 24.0779L2.88464 21.1338C3.55885 19.0602 5.31238 17.5356 7.4606 17.1549L14.5153 15.905C14.7714 15.8596 14.9815 15.6783 15.0634 15.4318C15.1545 15.1583 15.0585 14.9409 14.9932 14.8358C14.928 14.7305 14.7757 14.5481 14.4899 14.5082L9.9904 13.8789C9.48925 13.8087 9.06773 13.468 8.89453 12.9929C8.72132 12.5178 8.82476 11.9859 9.16323 11.6102L11.3272 9.2086C12.7871 7.58809 15.0095 6.90778 17.1269 7.4336L24.0806 9.15925C24.3333 9.22159 24.5988 9.14147 24.7739 8.94966C24.9685 8.73665 24.9693 8.49904 24.9525 8.3764C24.9356 8.25377 24.8708 8.02531 24.626 7.8726L20.7718 5.46883C20.3424 5.20114 20.0962 4.71853 20.1312 4.21404C20.1664 3.70969 20.4773 3.26577 20.9396 3.06015L23.894 1.74561C25.8872 0.858995 28.1942 1.14077 29.9147 2.48156L35.5649 6.88427C35.77 7.04409 36.0451 7.07868 36.2835 6.97464C36.548 6.85911 36.6454 6.64242 36.6799 6.52361C36.7144 6.40466 36.7482 6.16965 36.5867 5.93066L34.0441 2.16806C33.8718 1.91322 33.7971 1.62119 33.8112 1.33614C33.8271 0.595404 34.4332 0 35.1784 0H38.4123C40.5942 0 42.587 1.19532 43.6131 3.11934L46.9827 9.43801C47.105 9.66729 47.3425 9.81084 47.6024 9.81262C47.6042 9.81262 47.606 9.81262 47.6078 9.81262C47.8932 9.81262 48.0687 9.65567 48.1482 9.5616C48.2281 9.467 48.3546 9.26602 48.3044 8.98206L47.513 4.51126C47.4249 4.01334 47.6189 3.50735 48.0175 3.19591C48.4161 2.8846 48.9543 2.81857 49.4166 3.02405L52.3709 4.33859C54.3641 5.22534 55.698 7.12722 55.8524 9.30212L56.3588 16.444C56.3772 16.7032 56.5357 16.9308 56.7726 17.0381C57.0352 17.1574 57.2615 17.0846 57.3732 17.0306C57.4847 16.9767 57.6822 16.8445 57.7519 16.5647L58.8486 12.1588C58.9707 11.6681 59.3539 11.2848 59.8448 11.1623C60.3354 11.0397 60.8542 11.1982 61.193 11.5739L63.3568 13.9755C64.8167 15.5958 65.2614 17.8755 64.517 19.9252L62.0727 26.6557C61.984 26.9 62.0361 27.1724 62.2088 27.3667C62.4003 27.5823 62.6352 27.6084 62.7606 27.6041C62.8844 27.6001 63.1186 27.5596 63.2961 27.3323L66.0913 23.753C66.4027 23.3543 66.909 23.1597 67.4071 23.2477C67.9055 23.3353 68.3147 23.6908 68.4711 24.1718L69.4704 27.2452C70.1446 29.3188 69.6228 31.5821 68.1087 33.1519L63.1364 38.3071C62.9559 38.4942 62.8927 38.7642 62.9714 39.0116C63.0587 39.2867 63.2642 39.4061 63.379 39.4528C63.4935 39.4997 63.7239 39.5577 63.9787 39.4221L67.9889 37.2882C68.4357 37.0507 68.9769 37.0787 69.3967 37.3613C69.8163 37.6439 70.0454 38.135 69.9925 38.6378L69.6544 41.8518C69.4263 44.0203 68.0284 45.8759 66.0062 46.6946L59.3656 49.3829C59.1245 49.4805 58.9569 49.7014 58.9279 49.9597C58.8958 50.2464 59.0348 50.4389 59.1205 50.5282C59.2062 50.6176 59.3925 50.7649 59.6811 50.7439L64.2131 50.4247C64.7174 50.3891 65.201 50.6349 65.4693 51.0637C65.7376 51.4926 65.7472 52.0342 65.4941 52.4721L63.8771 55.2709C62.7862 57.1592 60.7534 58.286 58.5734 58.2121L51.4128 57.969C51.1545 57.9597 50.9099 58.0938 50.7783 58.3182C50.6323 58.5667 50.681 58.7993 50.7229 58.9158C50.7649 59.0323 50.8758 59.2423 51.1471 59.3407L55.4173 60.8912C55.8929 61.0639 56.2343 61.4848 56.3048 61.9855C56.3753 62.4861 56.1636 62.985 55.7543 63.2821L53.1379 65.1817C51.3729 66.463 49.0576 66.6666 47.0956 65.713L40.6529 62.5803C40.4191 62.4663 40.1425 62.4901 39.9312 62.641C39.6966 62.8091 39.6464 63.0412 39.6374 63.1647C39.6283 63.2881 39.6442 63.5252 39.8519 63.7253L43.1218 66.8774C43.486 67.2283 43.6265 67.7518 43.4873 68.2378C43.348 68.724 42.9515 69.0936 42.4565 69.1986L39.2931 69.8705C38.8833 69.9576 38.4713 70.0001 38.0627 70C36.3442 70 34.6913 69.2481 33.557 67.8997L28.9464 62.4194C28.7791 62.2205 28.5167 62.1297 28.2622 62.1818C27.9796 62.2398 27.8392 62.4315 27.7807 62.5406C27.7222 62.6497 27.6403 62.8726 27.7485 63.1399L29.4093 67.2409C29.5477 67.5115 29.5973 67.8297 29.5284 68.1499C29.3699 68.887 28.6445 69.3574 27.9064 69.1999L24.743 68.5281C22.6089 68.0747 20.9083 66.4916 20.3051 64.3962L18.3238 57.5156C18.2518 57.266 18.0493 57.0761 17.7955 57.0203C17.5137 56.9588 17.3074 57.0766 17.2096 57.1525C17.1118 57.2285 16.9461 57.3989 16.9362 57.687L16.7803 62.2243C16.7629 62.7296 16.4678 63.1842 16.013 63.406C15.5584 63.6279 15.0183 63.5807 14.6088 63.2835L11.9925 61.3841C10.2274 60.1025 9.31824 57.9649 9.61991 55.8055L10.6104 48.7145C10.6463 48.457 10.5386 48.2015 10.3293 48.0473C10.097 47.876 9.8607 47.8998 9.74031 47.9298C9.62005 47.9594 9.39937 48.0476 9.27296 48.307L7.28357 52.3887C7.06207 52.8433 6.60744 53.1385 6.10178 53.1564C5.59681 53.1717 5.1218 52.9116 4.86883 52.4736L3.25185 49.6749C2.1609 47.7866 2.2003 45.4643 3.35486 43.6144L7.14594 37.5389C7.28343 37.3185 7.28918 37.0411 7.16057 36.8151C7.01802 36.5645 6.79227 36.4904 6.67038 36.4685C6.54847 36.4464 6.31097 36.4375 6.09002 36.6232L2.61129 39.5435C2.2237 39.8686 1.68835 39.9538 1.21909 39.7643C0.749817 39.575 0.423523 39.1423 0.370575 38.6393L0.0325089 35.4253C-0.195282 33.2568 0.786072 31.1513 2.59364 29.9303ZM2.75398 35.1392L2.8228 35.7943L4.33006 34.5291C5.11536 33.8698 6.14474 33.5958 7.15414 33.7769C8.16354 33.958 9.03312 34.5731 9.53974 35.4641C10.1648 36.5633 10.1373 37.9126 9.46777 38.9854L5.6767 45.0608C5.05831 46.0519 5.03711 47.296 5.62157 48.3075L5.95116 48.8778L6.81307 47.1094C7.26209 46.1879 8.0909 45.519 9.08675 45.2741C10.0827 45.0297 11.1274 45.2377 11.9528 45.8459C12.9713 46.5959 13.4953 47.8399 13.3204 49.0921L12.3299 56.1832C12.1683 57.34 12.6552 58.485 13.6009 59.1714L14.134 59.5585L14.2016 57.5925C14.2369 56.5683 14.7216 55.6205 15.5318 54.992C16.3419 54.3636 17.3813 54.1292 18.3829 54.3493C19.6186 54.6205 20.6035 55.5439 20.9534 56.7589L22.9348 63.6394C23.2581 64.7618 24.1689 65.61 25.3122 65.8528L25.9507 65.9884L25.2123 64.1648C24.8276 63.2148 24.8846 62.1519 25.3691 61.2486C25.8534 60.3451 26.7074 59.7087 27.712 59.5026C28.9515 59.2484 30.227 59.6914 31.041 60.6592L35.6516 66.1395C36.4038 67.0335 37.5813 67.4378 38.7244 67.1954L39.3691 67.0584L37.9524 65.6927C37.2141 64.9812 36.8338 63.9869 36.9085 62.9648C36.9832 61.9427 37.5043 61.0141 38.3383 60.4173C39.367 59.6811 40.7127 59.5678 41.8503 60.1209L48.2928 63.2535C49.3438 63.7646 50.584 63.6555 51.5296 62.969L52.0628 62.5818L50.2127 61.91C49.2488 61.56 48.4966 60.8064 48.1489 59.8423C47.8011 58.8782 47.8992 57.8181 48.4181 56.9341C49.0583 55.8435 50.2402 55.1917 51.5058 55.2357L58.6665 55.4788C59.8344 55.517 60.9233 54.9147 61.5076 53.9033L61.8372 53.3329L59.8737 53.4713C58.8498 53.5433 57.8565 53.1607 57.1465 52.4211C56.4364 51.6816 56.0947 50.6734 56.2088 49.6549C56.3497 48.3985 57.1656 47.323 58.3382 46.8483L64.9788 44.16C66.0621 43.7215 66.811 42.7273 66.9332 41.5658L67.002 40.9106L65.2646 41.8351C64.3594 42.317 63.2955 42.3713 62.346 41.9844C61.3963 41.5975 60.6736 40.8153 60.3633 39.8385C59.9807 38.6335 60.2884 37.3192 61.1664 36.4091L66.1386 31.2539C66.9498 30.4129 67.2293 29.2005 66.8681 28.0897L66.6645 27.4632L65.4533 29.014C64.8223 29.822 63.8726 30.3041 62.8476 30.3365C61.823 30.3667 60.844 29.9482 60.1629 29.1819C59.3229 28.2365 59.0691 26.911 59.5007 25.7224L61.9449 18.9922C62.3437 17.8943 62.1055 16.6731 61.3234 15.8051L60.8824 15.3156L60.4073 17.2246C60.1596 18.2192 59.4882 19.0456 58.5649 19.4919C57.6417 19.9382 56.5766 19.9513 55.6426 19.5283C54.4904 19.006 53.7189 17.8982 53.6296 16.6371L53.1231 9.49516C53.0405 8.33019 52.3259 7.31124 51.2582 6.83628L50.6561 6.56831L50.9991 8.50533C51.1778 9.51444 50.9007 10.5423 50.239 11.3254C49.5824 12.1024 48.6246 12.5466 47.6078 12.5466C47.5998 12.5466 47.5918 12.5466 47.5838 12.5466C46.3186 12.5378 45.1631 11.8392 44.5682 10.7236L41.1987 4.4049C40.6487 3.37473 39.5811 2.73435 38.4123 2.73435H37.7279L38.8537 4.40039C39.4276 5.24968 39.593 6.30131 39.3071 7.28567C39.0213 8.27004 38.3184 9.06983 37.3787 9.48026C36.2194 9.98666 34.8793 9.81822 33.8817 9.04071L28.2316 4.638C27.31 3.91982 26.0741 3.76889 25.0064 4.24384L24.4044 4.51167L26.0743 5.55319C26.9443 6.09568 27.5233 6.98927 27.6629 8.00453C27.8025 9.01993 27.486 10.0363 26.7944 10.7933C25.9414 11.7271 24.6483 12.1179 23.4207 11.8131L16.4671 10.0874C15.3329 9.80592 14.1424 10.1703 13.3604 11.0383L12.9193 11.5277L14.8689 11.8005C15.8844 11.9425 16.7771 12.5235 17.3178 13.3942C17.8586 14.2651 17.9831 15.3223 17.6596 16.2948C17.2603 17.4945 16.2385 18.3769 14.9927 18.5977L7.93794 19.8475C6.78708 20.0515 5.84772 20.8681 5.48667 21.979L5.29459 22.5696L7.18219 22.0275C8.16779 21.7446 9.21987 21.9125 10.0682 22.4882C10.9168 23.064 11.4607 23.9793 11.5609 24.9992C11.6844 26.2575 11.1101 27.479 10.0618 28.1869L4.12566 32.1961C3.15744 32.8499 2.63181 33.9777 2.75398 35.1392Z" fill="#2B2525"/>
<path d="M34.9275 14.492L35 14.4919C35.7556 14.4919 36.3681 15.104 36.3681 15.8591C36.3681 16.6142 35.7556 17.2263 35 17.2263L34.9355 17.2264C34.9342 17.2264 34.9328 17.2264 34.9314 17.2264C34.1777 17.2264 33.5656 16.6169 33.5633 15.8632C33.5611 15.1081 34.1718 14.4942 34.9275 14.492Z" fill="#2B2525"/>
<path d="M18.6824 22.5614C21.3439 19.0793 25.1183 16.4971 29.3098 15.2907C30.036 15.0821 30.7941 15.5006 31.0031 16.2262C31.2123 16.9517 30.7931 17.7093 30.0672 17.9183C22.4998 20.0965 17.2146 27.1204 17.2146 34.9994C17.2146 44.7996 25.1931 52.7725 35.0001 52.7725C44.8071 52.7725 52.7856 44.7997 52.7856 34.9994C52.7856 27.0353 47.4279 19.9908 39.7569 17.8687C39.0287 17.6672 38.6018 16.914 38.8034 16.1862C39.005 15.4585 39.7587 15.0319 40.487 15.2333C49.339 17.6822 55.5217 25.8102 55.5217 34.9992C55.5217 46.307 46.3157 55.5067 35 55.5067C23.6842 55.5067 14.4783 46.3071 14.4783 34.9992C14.4784 30.4605 15.932 26.1595 18.6824 22.5614Z" fill="#2B2525"/>
<path d="M35 24.6089C40.7334 24.6089 45.3976 29.27 45.3976 34.9992C45.3976 40.7285 40.7332 45.3896 35 45.3896C29.2667 45.3896 24.6024 40.7284 24.6024 34.9992C24.6024 29.27 29.2666 24.6089 35 24.6089ZM35 42.6554C39.2245 42.6554 42.6613 39.2209 42.6613 34.9994C42.6613 30.7778 39.2245 27.3433 35 27.3433C30.7755 27.3433 27.3386 30.778 27.3386 34.9994C27.3386 39.2209 30.7755 42.6554 35 42.6554Z" fill="#2B2525"/>
</svg>
