<svg id="anim" viewBox="0 0 1909 952" fill="none" xmlns="http://www.w3.org/2000/svg">
    <path d="M464.986 811.515H502.774" stroke="#DFAE30" stroke-miterlimit="10" stroke-linecap="round" stroke-linejoin="round"/>
    <path d="M822.901 811.053H979.255C979.255 811.053 989.118 810.411 991.221 809.668C993.324 808.924 996.76 808.565 996.76 805.514V799.052C996.76 799.052 1000.18 800.565 1002.74 801.822C1005.31 803.078 1014.76 805.514 1039.18 805.514C1063.6 805.514 1073.18 801.642 1073.77 801.36C1074.36 801.078 1077.92 799.651 1077.92 794.437V619.116C1077.92 611.424 1074.41 610.321 1066.81 605.279L1066.03 604.877C1045.69 594.407 1003.16 583.133 1003.16 583.133C998.84 581.058 994.117 579.955 989.323 579.902H953.81C941.792 579.902 939.049 584.517 939.049 584.517C936.256 584.527 933.472 584.217 930.749 583.594C925.963 582.543 923.373 581.748 923.373 581.748C923.373 581.748 920.63 542.816 919.681 535.593C918.732 528.371 919.553 521.576 918.758 515.755C917.963 509.934 918.014 508.063 915.988 506.986C913.963 505.909 911.091 507.422 899.843 508.832C888.595 510.242 887.569 508.96 880.936 509.755C874.304 510.55 873.116 510.345 865.714 509.755C858.312 509.165 847.594 511.268 838.038 510.678C828.482 510.088 827.294 508.806 823.277 508.832C819.26 508.858 819.003 510.345 806.67 508.37C794.336 506.396 794.627 511.422 787.302 510.678C771.37 507.473 770.207 508.191 756.857 510.678C751.07 508.242 743.429 510.345 737.027 510.678C730.625 511.011 726.976 512.037 722.728 511.14C718.48 510.242 714.984 510.191 702.898 509.293C690.812 508.396 684.094 505.575 682.607 505.601C681.12 505.627 679.017 509.422 679.376 514.832C679.735 520.242 679.838 579.423 679.838 579.423C679.838 579.423 674.556 578.474 670.154 580.346C665.752 582.218 663.487 583.398 658.624 585.423C653.76 587.449 654.059 599.27 654.059 599.27C653.939 595.532 653.475 591.812 652.675 588.158C651.495 583.722 637.452 579.851 637.452 579.851C637.452 579.851 637.555 563.679 636.991 549.397C636.427 535.115 638.17 521.071 637.914 517.559C637.657 514.046 638.17 505.379 633.76 504.644C629.349 503.909 627.247 507.08 623.614 507.875C619.982 508.669 616.486 507.875 609.315 507.875C602.144 507.875 605.263 506.926 600.092 506.49C594.921 506.054 595.118 507.849 587.639 506.951C580.16 506.054 579.434 506.618 572.878 506.49C566.322 506.362 561.45 506.157 555.784 504.644C550.117 503.131 550.04 503.849 544.253 504.644C538.467 505.439 524.979 505.234 518.885 505.567C512.791 505.9 511.449 507.234 507.774 507.413C504.099 507.593 502.646 502.157 486.098 505.105C471.243 505.593 468.363 508.618 463.499 508.336C458.636 508.054 454.097 505.387 447.354 505.567C440.61 505.746 422.037 508.669 411.943 506.96C401.848 505.251 397.746 504.165 398.105 515.268C398.464 526.371 395.797 579.859 395.797 579.859C395.797 579.859 386.822 580.603 380.574 584.013C377.865 581.885 360.745 580.782 360.745 580.782C360.745 580.782 330.402 577.064 317.847 579.859C305.291 582.654 256.452 599.21 249.127 601.543C245.763 602.615 242.404 604.412 239.093 606.997M422.088 811.976H345.514C319.941 811.976 310.47 806.899 310.47 806.899V799.975C308.027 801.929 305.199 803.344 302.171 804.129C298.683 805.053 273.583 806.725 254.478 805.466M232.262 798.027C232.672 799.186 233.327 800.38 234.366 801.36C235.979 802.42 238.507 803.255 241.657 803.905" stroke="#DFAE30" stroke-miterlimit="10" stroke-linecap="round" stroke-linejoin="round"/>
    <path d="M28.7803 614.04C28.7803 614.04 29.447 613.45 35.695 612.655C41.1858 611.936 46.7227 611.627 52.2594 611.732C59.5844 611.732 67.3795 607.296 72.5505 605.749C77.7216 604.202 78.5336 604.826 78.5336 604.826" stroke="#DFAE30" stroke-miterlimit="10" stroke-linecap="round" stroke-linejoin="round"/>
    <path d="M24.165 609.886C28.1294 609.319 32.1266 609.01 36.1311 608.963C44.1057 608.741 48.4476 608.724 59.653 605.732C70.8584 602.741 77.2688 599.954 79.9441 600.194C82.6194 600.433 77.9611 603.177 78.0979 604.809C78.2347 606.442 84.4143 620.946 87.7819 632.955C91.1495 644.964 91.9358 649.562 91.9358 649.562C91.9358 649.562 96.8676 653.468 96.0898 659.716C95.312 665.964 92.9529 664.545 93.3205 667.563C93.688 670.58 96.8761 672.853 99.3035 681.862C101.731 690.871 104.432 695.23 105.757 698.957C107.081 702.683 107.466 706.786 108.064 709.572C108.306 710.819 108.614 712.051 108.988 713.265" stroke="#DFAE30" stroke-miterlimit="10" stroke-linecap="round" stroke-linejoin="round"/>
    <path d="M124.714 785.676C124.714 785.676 69.9178 681.161 54.1482 653.263C38.3786 625.365 32.3358 612.185 18.173 607.587C4.01032 602.988 -34.8709 592.364 -34.8709 592.364C-34.8709 592.364 -64.5297 582.894 -50.555 573.911" stroke="#DFAE30" stroke-miterlimit="10" stroke-linecap="round" stroke-linejoin="round"/>
    <path d="M114.567 823.044C114.567 823.044 143.26 809.882 124.251 785.214" stroke="#DFAE30" stroke-miterlimit="10" stroke-linecap="round" stroke-linejoin="round"/>
    <path d="M117.791 773.676C117.791 773.676 143.287 777.24 163.946 775.061C184.605 772.881 247.102 757.71 258.957 754.3C270.812 750.889 273.256 746.453 273.256 746.453" stroke="#DFAE30" stroke-miterlimit="10" stroke-linecap="round" stroke-linejoin="round"/>
    <path d="M272.307 754.761C272.307 754.761 272.589 759.094 263.085 763.53C253.58 767.966 198.494 782.932 170.835 787.061C143.176 791.189 123.825 784.753 123.825 784.753" stroke="#DFAE30" stroke-miterlimit="10" stroke-linecap="round" stroke-linejoin="round"/>
    <path d="M85.9688 713.7C85.9688 713.7 102.858 709.879 207.271 717.854C245.118 721.828 263.828 725.726 268.152 732.615" stroke="#DFAE30" stroke-miterlimit="10" stroke-linecap="round" stroke-linejoin="round"/>
    <path d="M240.947 794.437L253.401 789.36" stroke="#DFAE30" stroke-miterlimit="10" stroke-linecap="round" stroke-linejoin="round"/>
    <path d="M137.167 821.199L151.005 818.891" stroke="#DFAE30" stroke-miterlimit="10" stroke-linecap="round" stroke-linejoin="round"/>
    <path d="M-13.6562 781.984C-13.6562 781.984 -6.75865 784.933 -0.279872 787.061" stroke="#DFAE30" stroke-miterlimit="10" stroke-linecap="round" stroke-linejoin="round"/>
    <path d="M-57.4697 616.81C-57.4697 616.81 -3.62233 631.34 5.25821 636.186C14.1388 641.032 43.6352 714.607 56.456 741.838C69.2768 769.069 82.1489 800.19 91.4995 810.583" stroke="#DFAE30" stroke-miterlimit="10" stroke-linecap="round" stroke-linejoin="round"/>
    <path fill-rule="evenodd" clip-rule="evenodd" d="M-13.195 781.984L-44.1017 922.705C-44.1017 922.705 -44.2385 925.013 -40.4093 925.013C-36.5802 925.013 -36.2554 922.705 -36.2554 922.705L-0.280191 787.061C-0.280191 787.061 49.1654 796.044 81.8157 797.215C79.414 832.259 77.6618 883.952 77.6618 883.952C77.6618 883.952 81.2174 886.012 84.1149 883.491C85.4055 870.123 91.4911 811.053 91.4911 811.053C91.4911 811.053 99.8845 821.882 109.936 823.019C119.988 824.156 137.15 821.173 137.15 821.173L149.604 948.971C149.604 948.971 151.544 951.723 154.219 950.817C156.894 949.911 156.988 948.509 156.988 948.509L151.005 818.865C151.005 818.865 209.904 806.899 240.948 794.412C245.008 834.105 252.059 906.987 252.059 906.987C252.059 906.987 253.076 909.047 257.598 907.91C258.435 907.348 259.08 906.543 259.444 905.602L253.461 789.36C253.461 789.36 272 783.121 273.752 769.061C274.606 763.078 272.829 754.761 272.829 754.761C272.829 754.761 276.384 748.06 268.213 731.684C264.888 717.154 245.247 626.476 239.614 608.031C236.751 598.817 233.247 593.946 221.161 590.937C209.075 587.928 88.8843 562.552 57.9092 557.714C26.9341 552.876 8.88242 550.791 -13.5796 550.791C-36.0417 550.791 -81 558.894 -81 590.048C-81 607.826 -58.7773 615.638 -57.0165 616.348C-55.2644 622.818 -40.5461 723.145 -38.5631 736.308C-36.5802 749.471 -34.1784 775.292 -13.195 781.984Z" stroke="#DFAE30" stroke-miterlimit="10" stroke-linecap="round" stroke-linejoin="round"/>
    <path opacity="0.2" d="M743.566 739.539L767.088 779.71" stroke="#DFAE30" stroke-miterlimit="10" stroke-linecap="round" stroke-linejoin="round"/>
    <path d="M558.151 769.061L564.134 769.522" stroke="#DFAE30" stroke-miterlimit="10" stroke-linecap="round" stroke-linejoin="round"/>
    <path d="M480.201 762.146L486.184 762.607" stroke="#DFAE30" stroke-miterlimit="10" stroke-linecap="round" stroke-linejoin="round"/>
    <path d="M58.3193 169.423H324.992M1637.16 1L1271.92 169.423H892.527M1637.16 1L1908.01 6.12832M1637.16 1V904.012" stroke="#DFAE30" stroke-miterlimit="10" stroke-linecap="round" stroke-linejoin="round"/>
    <path d="M1272.19 169.423V742.085M1272.19 742.085L1636.3 904.012H1869.81M1272.19 742.085H1102.5" stroke="#DFAE30" stroke-miterlimit="10" stroke-linecap="round" stroke-linejoin="round"/>
    <path d="M465.099 850.729H664.582M807.79 850.729H1088.14L1253.32 934.671L1260.65 938.389H1024.46C1017.16 938.389 1009.75 936.543 1002.24 936.543C994.359 936.543 986.359 938.389 978.256 938.389H549.853C508.527 938.389 467.8 936.543 428.551 936.543C422.055 936.543 415.593 938.389 409.183 938.389C403.149 938.389 397.148 937.466 391.234 937.466C360.165 937.466 330.198 938.389 301.753 938.389C290.274 938.389 279.043 937.466 268.086 937.466C226.443 937.466 188.78 937.772 156.613 938.031M422.662 850.746H256.188M148.92 938.093C128.382 938.257 110.267 938.389 95.0047 938.389H87.1669H40.1914L85.2095 915.756L93.3209 911.679L142.937 886.742M154.049 881.157L186.853 864.67L195.511 860.311L214.537 850.746H246.359" stroke="#DFAE30" stroke-miterlimit="10" stroke-linecap="round" stroke-linejoin="round"/>
    <path d="M617.649 753.376C617.816 753.459 617.951 753.593 618.035 753.76C618.118 753.927 618.145 754.116 618.11 754.299L580.289 768.137C579.088 768.474 577.844 768.63 576.597 768.599L469.594 758.915C469.594 758.915 465.594 758.573 468.209 757.53" stroke="#DFAE30" stroke-miterlimit="10" stroke-linecap="round" stroke-linejoin="round"/>
    <path fill-rule="evenodd" clip-rule="evenodd" d="M618.11 753.376C618.11 753.376 619.033 754.017 619.033 754.299V757.068C619.033 757.427 618.11 757.992 618.11 757.992C618.11 757.992 581.357 771.983 580.289 772.291C579.532 772.502 578.761 772.656 577.981 772.753L467.722 763.522C467 763.374 466.361 762.959 465.933 762.36C465.505 761.761 465.32 761.021 465.414 760.291C465.679 759.744 465.876 759.829 465.876 759.829C465.876 759.829 465.816 758.342 466.337 757.983C466.859 757.624 506.467 745.53 506.467 745.53C507.977 745.165 509.53 745.009 511.082 745.068C513.629 745.179 618.11 753.376 618.11 753.376Z" stroke="#DFAE30" stroke-miterlimit="10" stroke-linecap="round" stroke-linejoin="round"/>
    <path fill-rule="evenodd" clip-rule="evenodd" d="M634.256 730.307C632.435 730.794 632.726 733.119 633.333 734.923C633.94 736.726 635.307 738.008 636.102 736.307C636.897 734.607 636.658 729.666 634.256 730.307Z" stroke="#DFAE30" stroke-miterlimit="10" stroke-linecap="round" stroke-linejoin="round"/>
    <path d="M638.872 728.923C638.872 728.923 643.145 729.846 651.786 729.846C660.428 729.846 662.898 728.461 662.898 728.461" stroke="#DFAE30" stroke-miterlimit="10" stroke-linecap="round" stroke-linejoin="round"/>
    <path fill-rule="evenodd" clip-rule="evenodd" d="M637.487 738.589C637.487 738.589 640.205 745.923 642.564 748.744C647.231 749.897 651.368 750.171 658.248 749.205C662.422 742.763 664.511 735.192 664.231 727.521C661.795 724.803 638.077 723.316 635.632 727.982C632.547 726.743 631.017 729.042 631.017 733.521C631.017 738 635.179 741.102 637.487 738.589Z" stroke="#DFAE30" stroke-miterlimit="10" stroke-linecap="round" stroke-linejoin="round"/>
    <path d="M629.051 747.838C629.051 746.205 633.453 744.787 639.923 744.06M660.975 744.24C666.633 745 670.377 746.325 670.377 747.829" stroke="#DFAE30" stroke-miterlimit="10" stroke-linecap="round" stroke-linejoin="round"/>
    <path d="M661.804 741.906C671.941 742.846 678.992 744.94 678.992 747.385C678.992 750.701 665.983 753.368 649.932 753.368C633.88 753.368 620.871 750.684 620.871 747.385C620.871 744.898 628.196 742.769 638.632 741.855" stroke="#DFAE30" stroke-miterlimit="10" stroke-linecap="round" stroke-linejoin="round"/>
    <path d="M502.347 678.169C502.347 678.169 531.407 679.571 542.937 680.015C554.468 680.46 511.774 671.271 502.774 671.254" stroke="#DFAE30" stroke-miterlimit="10" stroke-linecap="round" stroke-linejoin="round"/>
    <path d="M497.27 661.562C497.27 661.562 488.936 661.81 485.74 664.793C482.543 667.776 491.278 680.016 491.278 680.016" stroke="#DFAE30" stroke-miterlimit="10" stroke-linecap="round" stroke-linejoin="round"/>
    <path d="M507.416 724.308C507.416 724.308 497.937 695.034 495.45 691.085C492.962 687.136 502.826 696.162 502.826 696.162" stroke="#DFAE30" stroke-miterlimit="10" stroke-linecap="round" stroke-linejoin="round"/>
    <path d="M523.561 695.247H562.305" stroke="#DFAE30" stroke-miterlimit="10" stroke-linecap="round" stroke-linejoin="round"/>
    <path d="M656.393 678.631C656.393 678.631 664 682.477 663.769 691.084C670.607 693.699 670.684 693.853 670.684 693.853" stroke="#DFAE30" stroke-miterlimit="10" stroke-linecap="round" stroke-linejoin="round"/>
    <path d="M644.401 678.169C644.401 678.169 644.786 688.785 646.248 692.468C645.56 698.44 645.252 704.45 645.324 710.46" stroke="#DFAE30" stroke-miterlimit="10" stroke-linecap="round" stroke-linejoin="round"/>
    <path d="M653.205 691.093C653.205 691.093 645.136 694.17 650.897 700.785C656.658 707.401 658.35 708.016 650.436 712.315C642.521 716.615 643.906 720.931 643.521 723.845" stroke="#DFAE30" stroke-miterlimit="10" stroke-linecap="round" stroke-linejoin="round"/>
    <path d="M652.248 681.4C652.248 681.4 648.829 690.631 657.786 693.853" stroke="#DFAE30" stroke-miterlimit="10" stroke-linecap="round" stroke-linejoin="round"/>
    <path d="M643.479 671.716C643.479 671.716 646.479 677.255 650.393 680.024C652.444 681.578 654.8 682.679 657.308 683.255" stroke="#DFAE30" stroke-miterlimit="10" stroke-linecap="round" stroke-linejoin="round"/>
    <path d="M647.17 673.562C656.624 676.195 668.59 674.024 673.462 692.435" stroke="#DFAE30" stroke-miterlimit="10" stroke-linecap="round" stroke-linejoin="round"/>
    <path d="M629.178 662.947C629.178 662.947 619.349 668.118 621.58 679.648" stroke="#DFAE30" stroke-miterlimit="10" stroke-linecap="round" stroke-linejoin="round"/>
    <path d="M634.256 665.255C634.256 665.255 625.11 675.717 630.102 684.17" stroke="#DFAE30" stroke-miterlimit="10" stroke-linecap="round" stroke-linejoin="round"/>
    <path d="M630.128 662.947C630.128 662.947 620.059 680.785 638.427 692.477" stroke="#DFAE30" stroke-miterlimit="10" stroke-linecap="round" stroke-linejoin="round"/>
    <path d="M610.734 648.648C610.734 648.648 612.503 651.879 614.888 652.802C617.272 653.725 619.119 654.802 622.726 657.417C626.333 660.033 626.144 660.956 630.102 662.494C634.059 664.033 639.247 668.648 643.94 669.418C648.632 670.187 665.692 668.802 670.231 680.033" stroke="#DFAE30" stroke-miterlimit="10" stroke-linecap="round" stroke-linejoin="round"/>
    <path d="M619.016 739.538C619.016 739.538 623.29 687.554 621.803 680.468C620.315 673.383 616.802 665.4 621.803 656.476" stroke="#DFAE30" stroke-miterlimit="10" stroke-linecap="round" stroke-linejoin="round"/>
    <path d="M613.034 689.247C613.034 689.247 607.726 689.708 606.119 691.555C604.512 693.401 607.119 717.085 609.35 726.154" stroke="#DFAE30" stroke-miterlimit="10" stroke-linecap="round" stroke-linejoin="round"/>
    <path d="M598.281 668.948C599.135 669.101 603.281 682.17 604.264 684.17C605.247 686.17 613.486 686.016 613.486 686.016" stroke="#DFAE30" stroke-miterlimit="10" stroke-linecap="round" stroke-linejoin="round"/>
    <path d="M584.442 655.562C583.442 655.87 578.981 657.87 590.425 660.639C601.87 663.409 618.794 674.315 621.785 684.17" stroke="#DFAE30" stroke-miterlimit="10" stroke-linecap="round" stroke-linejoin="round"/>
    <path d="M542.467 739.077C551.014 739.077 558.843 730.462 561.835 715.547C564.826 700.632 565.066 700.786 565.066 700.786" stroke="#DFAE30" stroke-miterlimit="10" stroke-linecap="round" stroke-linejoin="round"/>
    <path d="M567.835 739.077C567.835 739.077 572.22 710.016 571.989 706.777" stroke="#DFAE30" stroke-miterlimit="10" stroke-linecap="round" stroke-linejoin="round"/>
    <path d="M598.281 739.077C597.514 732.803 597.205 726.481 597.358 720.162" stroke="#DFAE30" stroke-miterlimit="10" stroke-linecap="round" stroke-linejoin="round"/>
    <path d="M557.69 654.639C557.69 654.639 586.981 663.255 589.956 665.255C592.93 667.255 596.793 679.554 599.64 690.632C602.486 701.709 600.947 721.239 606.554 736.787" stroke="#DFAE30" stroke-miterlimit="10" stroke-linecap="round" stroke-linejoin="round"/>
    <path d="M536.963 664.332C536.963 664.332 574.861 669.562 576.63 672.178C578.4 674.793 583.93 691.093 584.468 693.401C585.007 695.708 585.468 723.393 588.622 732.615" stroke="#DFAE30" stroke-miterlimit="10" stroke-linecap="round" stroke-linejoin="round"/>
    <path d="M526.792 663.374C551.16 665.528 571.605 672.913 572.451 673.067C573.297 673.221 579.443 690.443 579.827 692.905C580.212 695.366 582.058 717.358 583.058 725.205C583.649 729.878 584.574 734.502 585.828 739.043" stroke="#DFAE30" stroke-miterlimit="10" stroke-linecap="round" stroke-linejoin="round"/>
    <path d="M508.338 656.947C508.338 656.947 514.56 660.793 524.022 659.716C533.484 658.639 545.159 661.101 554.467 662.486C563.775 663.87 567.288 666.332 570.151 667.101C573.015 667.87 595.519 677.717 595.519 677.717" stroke="#DFAE30" stroke-miterlimit="10" stroke-linecap="round" stroke-linejoin="round"/>
    <path d="M490.808 651.878C494.731 653.878 498.646 662.494 498.646 662.494" stroke="#DFAE30" stroke-miterlimit="10" stroke-linecap="round" stroke-linejoin="round"/>
    <path d="M524.946 710.469C524.946 710.469 523.946 696.323 523.561 695.246C523.176 694.169 502.578 683.716 500.484 681.408C498.39 679.101 493.492 673.101 488.518 671.254" stroke="#DFAE30" stroke-miterlimit="10" stroke-linecap="round" stroke-linejoin="round"/>
    <path d="M506.031 664.331C518.457 662.391 531.142 662.861 543.391 665.716C563.297 670.485 567.759 672.793 569.22 681.862C570.682 690.93 570.605 694.315 570.605 694.315" stroke="#DFAE30" stroke-miterlimit="10" stroke-linecap="round" stroke-linejoin="round"/>
    <path d="M507.416 656.024C507.493 659.101 507.954 658.639 506.031 662.007C504.108 665.375 506.031 667.546 506.031 667.546" stroke="#DFAE30" stroke-miterlimit="10" stroke-linecap="round" stroke-linejoin="round"/>
    <path d="M489.432 739.538C489.432 739.538 489.201 705.854 488.047 696.631C486.893 687.409 483.432 684.178 483.432 684.178" stroke="#DFAE30" stroke-miterlimit="10" stroke-linecap="round" stroke-linejoin="round"/>
    <path d="M494.039 739.538C493.962 738.769 490.732 710.315 490.808 705.854C490.885 701.392 494.227 701.58 496.347 705.392" stroke="#DFAE30" stroke-miterlimit="10" stroke-linecap="round" stroke-linejoin="round"/>
    <path d="M486.201 739.077C486.201 739.077 483.816 728.923 483.893 727.111C483.97 725.299 486.74 725.401 485.74 722.957C485.436 721.963 484.968 721.027 484.355 720.187C483.201 718.187 483.047 699.58 482.97 696.195C482.893 692.811 483.97 692.777 483.432 689.734C482.893 686.691 483.97 685.118 482.97 683.751C481.97 682.383 479.816 677.443 481.586 676.827C477.816 669.289 477.97 670.058 477.893 668.52C477.816 666.981 478.355 662.058 478.355 662.058C478.355 662.058 485.808 657.289 486.654 654.673C487.5 652.058 487.193 651.135 489.885 651.442C492.577 651.75 491.654 646.058 495.868 647.75C500.082 649.442 506.979 655.596 506.979 655.596C506.979 655.596 506.749 653.887 512.056 654.673C517.364 655.459 525.971 656.519 527.741 656.058C529.51 655.596 530.894 652.827 532.818 654.673C534.741 656.519 534.433 657.75 536.048 656.981C537.664 656.212 540.279 654.058 543.425 654.673C546.57 655.289 546.844 653.75 548.963 654.212C551.083 654.673 556.801 654.673 556.801 654.673C556.801 654.673 556.416 652.519 559.109 651.442C561.801 650.365 568.408 651.596 573.408 650.981C578.408 650.365 578.255 652.365 585.374 652.827C592.494 653.288 589.451 652.058 595.058 651.904C600.665 651.75 599.443 649.442 601.512 647.75C603.58 646.058 610.734 648.211 610.734 648.211C610.734 648.211 616.042 639.288 616.717 638.519C617.392 637.75 616.178 642.211 618.563 643.596C620.948 644.981 620.794 648.211 624.102 650.058C627.41 651.904 630.632 649.75 633.786 653.75C636.94 657.75 636.94 652.827 641.624 656.981C646.307 661.135 644.777 662.212 649 663.443C653.222 664.673 651.384 667.904 653.615 668.981C655.846 670.058 663.684 669.597 667.915 675.443C672.146 681.289 673.684 693.281 674.829 704.503C675.975 715.726 675.291 738.649 675.291 738.649" stroke="#DFAE30" stroke-miterlimit="10" stroke-linecap="round" stroke-linejoin="round"/>
    <path d="M535.091 798.591C535.091 798.591 525.638 821.352 520.33 821.669C515.022 821.985 516.176 817.515 516.176 817.515" stroke="#DFAE30" stroke-miterlimit="10" stroke-linecap="round" stroke-linejoin="round"/>
    <path d="M600.588 826.737C597.896 827.66 594.212 827.044 597.357 824.429C600.503 821.813 602.203 817.352 599.203 811.514C596.203 805.676 602.511 807.36 604.28 811.514" stroke="#DFAE30" stroke-miterlimit="10" stroke-linecap="round" stroke-linejoin="round"/>
    <path d="M604.272 799.053C604.272 799.053 606.041 809.822 609.811 811.968" stroke="#DFAE30" stroke-miterlimit="10" stroke-linecap="round" stroke-linejoin="round"/>
    <path d="M584.904 798.13C584.904 798.13 583.75 812.096 595.939 818.934" stroke="#DFAE30" stroke-miterlimit="10" stroke-linecap="round" stroke-linejoin="round"/>
    <path d="M559.997 798.591C559.997 798.591 558.228 816.429 552.16 817.968C546.091 819.506 549.39 814.275 549.39 814.275" stroke="#DFAE30" stroke-miterlimit="10" stroke-linecap="round" stroke-linejoin="round"/>
    <path d="M550.314 798.591C550.314 798.591 541.322 820.583 538.784 821.199C536.245 821.814 538.245 814.121 538.322 812.429" stroke="#DFAE30" stroke-miterlimit="10" stroke-linecap="round" stroke-linejoin="round"/>
    <path d="M498.654 799.053C498.654 799.053 504.578 813.506 506.954 819.352C509.33 825.199 507.646 825.199 512.492 825.335C517.338 825.472 516.877 824.412 522.176 826.259C527.475 828.105 531.476 827.481 537.818 827.199C544.16 826.917 552.963 825.968 557.647 826.737C562.331 827.506 564.639 828.447 571.485 828.122C578.331 827.797 580.631 827.353 588.579 827.66C596.528 827.968 597.417 828.122 601.494 826.276C605.571 824.429 605.725 826.891 608.409 824.429C611.093 821.968 611.563 819.045 616.708 817.045C621.854 815.045 622.931 815.66 625.931 814.737C628.931 813.814 627.7 813.027 631.469 812.891C635.239 812.754 641.153 810.583 641.153 810.583" stroke="#DFAE30" stroke-miterlimit="10" stroke-linecap="round" stroke-linejoin="round"/>
    <path d="M643.017 789.369H755.097" stroke="#DFAE30" stroke-miterlimit="10" stroke-linecap="round" stroke-linejoin="round"/>
    <path d="M643.017 787.061H756.02" stroke="#DFAE30" stroke-miterlimit="10" stroke-linecap="round" stroke-linejoin="round"/>
    <path d="M755.558 787.061H904.997" stroke="#DFAE30" stroke-miterlimit="10" stroke-linecap="round" stroke-linejoin="round"/>
    <path d="M719.121 923.167L767.088 798.13H827.508" stroke="#DFAE30" stroke-miterlimit="10" stroke-linecap="round" stroke-linejoin="round"/>
    <path d="M422.088 787.061H642.555L711.274 903.79L756.01 786.6L839.029 739.077" stroke="#DFAE30" stroke-miterlimit="10" stroke-linecap="round" stroke-linejoin="round"/>
    <path d="M432.233 922.244V799.053" stroke="#DFAE30" stroke-miterlimit="10" stroke-linecap="round" stroke-linejoin="round"/>
    <path d="M422.55 798.591H466.363" stroke="#DFAE30" stroke-miterlimit="10" stroke-linecap="round" stroke-linejoin="round"/>
    <path d="M642.555 787.061L744.489 739.077" stroke="#DFAE30" stroke-miterlimit="10" stroke-linecap="round" stroke-linejoin="round"/>
    <path d="M633.854 739.077H457.141L422.097 787.523V922.244H432.243L464.987 856.729V798.608H634.222L706.634 923.184H719.087L804.875 858.131L827.012 798.155H904.963V786.6L867.142 739.077H662.863" stroke="#DFAE30" stroke-miterlimit="10" stroke-linecap="round" stroke-linejoin="round"/>
    <path d="M311.393 749.223C313.35 746.111 324.308 745.992 324.308 745.992H452.071" stroke="#DFAE30" stroke-miterlimit="10" stroke-linecap="round" stroke-linejoin="round"/>
    <path d="M319.693 739.539L454.833 741.385" stroke="#DFAE30" stroke-miterlimit="10" stroke-linecap="round" stroke-linejoin="round"/>
    <path d="M311.855 700.777C311.855 700.777 311.513 702.161 321.539 702.161C331.565 702.161 406.755 704.007 439.157 704.007H483.432" stroke="#DFAE30" stroke-miterlimit="10" stroke-linecap="round" stroke-linejoin="round"/>
    <path d="M486.663 653.254H477.902" stroke="#DFAE30" stroke-miterlimit="10" stroke-linecap="round" stroke-linejoin="round"/>
    <path d="M557.69 653.716H503.723" stroke="#DFAE30" stroke-miterlimit="10" stroke-linecap="round" stroke-linejoin="round"/>
    <path d="M994.939 744.154C996.204 745.649 994.136 745.538 872.714 745.538" stroke="#DFAE30" stroke-miterlimit="10" stroke-linecap="round" stroke-linejoin="round"/>
    <path d="M997.247 799.052V756.145C997.247 749.111 997.82 747.726 996.324 745.53C994.828 743.333 989.409 739.991 989.409 739.991" stroke="#DFAE30" stroke-miterlimit="10" stroke-linecap="round" stroke-linejoin="round"/>
    <path d="M1003.24 798.13C1005.89 800.779 1020.65 801.361 1042.44 801.361C1064.24 801.361 1075.78 800.096 1077.04 798.591" stroke="#DFAE30" stroke-miterlimit="10" stroke-linecap="round" stroke-linejoin="round"/>
    <path d="M1057.21 244.475L1059.05 240.783C1059.05 240.783 1060.07 237.091 1065.97 237.091C1071.86 237.091 1075.65 241.706 1075.65 241.706L1092.26 255.544C1092.26 255.544 1097.33 259.493 1097.33 268.459V758.567" stroke="#DFAE30" stroke-miterlimit="10" stroke-linecap="round" stroke-linejoin="round"/>
    <path d="M1091.33 759.137V269.853C1091.33 269.853 1091.74 262.579 1086.72 258.741C1081.7 254.904 1069.19 244.442 1069.19 244.442C1069.19 244.442 1065.59 241.023 1063.21 246.75" stroke="#DFAE30" stroke-miterlimit="10" stroke-linecap="round" stroke-linejoin="round"/>
    <path d="M338.608 811.053V812.899C338.608 812.899 337.932 815.668 345.984 815.668C354.035 815.668 352.899 813.822 352.899 813.822V811.053" stroke="#DFAE30" stroke-miterlimit="10" stroke-linecap="round" stroke-linejoin="round"/>
    <path d="M950.648 811.053V812.899C950.648 812.899 949.972 815.668 958.024 815.668C966.075 815.668 964.939 813.822 964.939 813.822V811.053" stroke="#DFAE30" stroke-miterlimit="10" stroke-linecap="round" stroke-linejoin="round"/>
    <path d="M1000.93 300.306L1032.75 244.476C1032.75 244.476 1040.97 236.783 1060.89 245.86C1080.8 254.937 1082.56 265.237 1082.56 265.237L1060.91 324.76" stroke="#DFAE30" stroke-miterlimit="10" stroke-linecap="round" stroke-linejoin="round"/>
    <path d="M1005.09 305.734C1006.8 300.392 1019.88 300.34 1033.25 305.623C1046.62 310.905 1056.89 320.341 1055.16 325.683" stroke="#DFAE30" stroke-miterlimit="10" stroke-linecap="round" stroke-linejoin="round"/>
    <path fill-rule="evenodd" clip-rule="evenodd" d="M1034.16 301.724C1050.72 308.289 1062.41 318.99 1060.28 325.657C1058.15 332.323 1043 332.358 1026.44 325.802C1009.89 319.246 998.195 308.537 1000.32 301.87C1002.45 295.203 1017.61 295.169 1034.16 301.724Z" stroke="#DFAE30" stroke-miterlimit="10" stroke-linecap="round" stroke-linejoin="round"/>
    <path d="M1113.47 761.667C1113.47 764.855 1108.47 768.129 1077.96 768.129" stroke="#DFAE30" stroke-miterlimit="10" stroke-linecap="round" stroke-linejoin="round"/>
    <path d="M1097.47 756.086C1106.21 757.795 1113.98 760.197 1113.98 762.607V768.146C1113.81 770.129 1106.38 774.095 1078 774.095M1078 753.838C1082.47 753.939 1086.93 754.341 1091.35 755.043L1078 753.838Z" stroke="#DFAE30" stroke-miterlimit="10" stroke-linecap="round" stroke-linejoin="round"/>
    <path d="M301.709 612.194C304.043 614.279 304.017 615.886 304.017 615.886V800.899" stroke="#DFAE30" stroke-miterlimit="10" stroke-linecap="round" stroke-linejoin="round"/>
    <path d="M782.31 509.772C786.943 512.089 790.148 524.072 790.148 524.072" stroke="#DFAE30" stroke-miterlimit="10" stroke-linecap="round" stroke-linejoin="round"/>
    <path d="M757.404 511.157C759.754 513.928 761.91 516.858 763.857 519.927" stroke="#DFAE30" stroke-miterlimit="10" stroke-linecap="round" stroke-linejoin="round"/>
    <path d="M736.651 510.696C742.438 511.166 745.412 517.619 745.412 517.619" stroke="#DFAE30" stroke-miterlimit="10" stroke-linecap="round" stroke-linejoin="round"/>
    <path d="M723.292 511.157C729.079 514.397 733.19 523.123 737.13 531.918" stroke="#DFAE30" stroke-miterlimit="10" stroke-linecap="round" stroke-linejoin="round"/>
    <path d="M454.371 506.542L471.901 518.508" stroke="#DFAE30" stroke-miterlimit="10" stroke-linecap="round" stroke-linejoin="round"/>
    <path d="M538.322 505.618C543.647 508.858 545.45 516.909 544.775 524.072" stroke="#DFAE30" stroke-miterlimit="10" stroke-linecap="round" stroke-linejoin="round"/>
    <path d="M504.184 506.542C512.048 511.627 515.714 531.457 515.714 531.457" stroke="#DFAE30" stroke-miterlimit="10" stroke-linecap="round" stroke-linejoin="round"/>
    <path d="M907.766 653.254C903.142 639.844 900.706 635.75 915.604 643.562" stroke="#DFAE30" stroke-miterlimit="10" stroke-linecap="round" stroke-linejoin="round"/>
    <path d="M1006.47 612.655C1006.47 612.655 1023.85 613.578 1045.21 613.578C1066.57 613.578 1076.74 614.066 1076.57 612.194" stroke="#DFAE30" stroke-miterlimit="10" stroke-linecap="round" stroke-linejoin="round"/>
    <path d="M1005.55 615.425C1005.55 615.425 1029.86 617.305 1062.43 616.331C1066.12 616.219 1069.92 616.074 1073.81 615.886C1074.49 615.983 1075.19 615.907 1075.84 615.665C1076.48 615.423 1077.05 615.023 1077.5 614.501" stroke="#DFAE30" stroke-miterlimit="10" stroke-linecap="round" stroke-linejoin="round"/>
    <path d="M983.409 602.971C983.409 602.971 999.871 609.458 1002.32 612.202C1004.76 614.946 1003.24 617.279 1003.24 617.279" stroke="#DFAE30" stroke-miterlimit="10" stroke-linecap="round" stroke-linejoin="round"/>
    <path d="M984.793 600.663C984.793 600.663 1001.74 607.236 1004.62 609.894C1007.5 612.552 1006.58 613.929 1005.55 615.433C1004.51 616.937 1003.13 616.467 1003.24 619.125C1003.35 621.783 1003.24 795.83 1003.24 795.83C1003.24 795.83 1002.2 801.941 1006.01 802.753" stroke="#DFAE30" stroke-miterlimit="10" stroke-linecap="round" stroke-linejoin="round"/>
    <path d="M674.846 703.084C674.846 703.084 799.951 704.007 841.815 704.007C883.68 704.007 975.921 704.349 985.255 703.084C994.588 701.819 996.785 700.777 996.785 700.777" stroke="#DFAE30" stroke-miterlimit="10" stroke-linecap="round" stroke-linejoin="round"/>
    <path d="M946.511 666.178C946.511 666.178 993.213 696.093 996.785 700.777C1000.36 705.461 998.281 733.419 998.17 736.761C998.059 740.103 997.136 737.564 993.555 738.607C989.973 739.65 985.255 740.915 985.255 740.915H869.449" stroke="#DFAE30" stroke-miterlimit="10" stroke-linecap="round" stroke-linejoin="round"/>
    <path d="M920.22 601.125C920.22 601.125 918.622 596.424 923.912 597.894C929.203 599.364 958.041 637.108 958.041 637.108" stroke="#DFAE30" stroke-miterlimit="10" stroke-linecap="round" stroke-linejoin="round"/>
    <path d="M940.049 629.271C940.049 629.271 914.929 606.347 919.297 604.817C923.664 603.287 927.596 609.894 927.596 609.894" stroke="#DFAE30" stroke-miterlimit="10" stroke-linecap="round" stroke-linejoin="round"/>
    <path d="M921.587 623.271C921.587 623.271 944.665 656.605 950.186 657.87C955.708 659.135 935.887 630.186 935.887 630.186" stroke="#DFAE30" stroke-miterlimit="10" stroke-linecap="round" stroke-linejoin="round"/>
    <path d="M915.143 675.862C921.587 673.648 932.912 654.545 935.434 650.485C937.955 646.425 934.297 640.477 935.895 639.374C937.494 638.271 960.588 624.981 969.101 615.382C977.614 605.784 982.264 595.45 988.469 593.698" stroke="#DFAE30" stroke-miterlimit="10" stroke-linecap="round" stroke-linejoin="round"/>
    <path d="M922.988 581.749C919.971 581.142 912.629 583.963 901.313 591.441C889.996 598.92 887.723 600.578 882.859 604.356C877.996 608.134 876.645 613.032 870.406 617.733C864.166 622.434 862.807 634.716 858.876 639.879C854.944 645.041 841.363 653.169 838.585 655.101C835.807 657.033 838.585 658.793 838.585 658.793" stroke="#DFAE30" stroke-miterlimit="10" stroke-linecap="round" stroke-linejoin="round"/>
    <path d="M837.201 658.332C837.201 658.332 844.595 657.092 854.731 660.639C864.868 664.187 884.724 667.477 897.168 670.794C909.613 674.11 909.408 675.777 913.776 676.332C918.143 676.888 918.904 675.324 930.383 671.717C941.862 668.11 954.153 663.323 958.982 653.725C963.811 644.126 981.136 605.425 983.888 599.741C986.641 594.057 987.829 594.117 990.341 593.279C992.854 592.441 998.427 588.809 996.795 587.74C995.162 586.672 995.889 586.963 973.717 586.817C961.381 586.824 949.057 586.054 936.819 584.51" stroke="#DFAE30" stroke-miterlimit="10" stroke-linecap="round" stroke-linejoin="round"/>
    <path d="M681.3 506.105C683.359 506.883 684.086 526.781 684.069 537.482C684.052 548.183 682.471 630.818 682.223 641.288C681.975 651.758 680.376 656.511 680.376 656.511" stroke="#DFAE30" stroke-miterlimit="10" stroke-linecap="round" stroke-linejoin="round"/>
    <path d="M680.838 656.024C680.838 656.024 673.941 658.246 671.154 658.332C668.368 658.417 670.941 659.391 666.077 660.639C661.214 661.887 659.402 662.161 657.778 664.332C656.154 666.503 658.24 669.87 658.24 669.87" stroke="#DFAE30" stroke-miterlimit="10" stroke-linecap="round" stroke-linejoin="round"/>
    <path d="M679.454 578.979V650.955C679.454 656.348 681.3 656.494 681.3 656.494C681.3 656.494 702.531 652.801 732.498 652.801C762.464 652.801 841.808 653.263 841.808 653.263" stroke="#DFAE30" stroke-miterlimit="10" stroke-linecap="round" stroke-linejoin="round"/>
    <path d="M654.547 600.202C654.547 600.202 655.026 592.963 661 590.51C666.975 588.056 678.949 589.125 678.949 589.125" stroke="#DFAE30" stroke-miterlimit="10" stroke-linecap="round" stroke-linejoin="round"/>
    <path d="M637.487 589.586C637.487 589.586 648.111 587.655 651.325 591.894C653.316 594.745 654.438 598.111 654.556 601.587V667.101" stroke="#DFAE30" stroke-miterlimit="10" stroke-linecap="round" stroke-linejoin="round"/>
    <path d="M637.025 579.902C637.025 579.902 636.811 597.347 637.486 613.125C638.162 628.903 637.392 655.289 637.392 655.289" stroke="#DFAE30" stroke-miterlimit="10" stroke-linecap="round" stroke-linejoin="round"/>
    <path d="M634.718 505.157C636.086 506.165 635.197 512.448 633.795 526.841C632.393 541.234 632.889 566.893 632.41 577.133C631.932 587.372 634.274 617.647 634.256 626.04C634.239 634.433 636.111 655.289 636.111 655.289" stroke="#DFAE30" stroke-miterlimit="10" stroke-linecap="round" stroke-linejoin="round"/>
    <path d="M348.753 637.571C348.753 637.571 354.07 617.912 356.591 619.117C359.113 620.322 350.147 638.87 354.283 648.178" stroke="#DFAE30" stroke-miterlimit="10" stroke-linecap="round" stroke-linejoin="round"/>
    <path d="M341.831 617.732C341.831 617.732 368.831 598.073 369.045 601.586C369.259 605.099 354.515 610.492 347.831 627.886" stroke="#DFAE30" stroke-miterlimit="10" stroke-linecap="round" stroke-linejoin="round"/>
    <path d="M385.677 636.647C385.677 636.647 369.318 654.554 372.763 655.101C376.207 655.648 401.823 637.109 401.823 637.109" stroke="#DFAE30" stroke-miterlimit="10" stroke-linecap="round" stroke-linejoin="round"/>
    <path d="M365.36 645.425C365.36 645.425 379.891 632.416 381.506 633.895C383.122 635.374 363.053 658.349 363.053 658.349" stroke="#DFAE30" stroke-miterlimit="10" stroke-linecap="round" stroke-linejoin="round"/>
    <path d="M422.55 664.793C430.833 663.733 438.696 654.178 438.696 654.178" stroke="#DFAE30" stroke-miterlimit="10" stroke-linecap="round" stroke-linejoin="round"/>
    <path d="M328.463 598.355C328.463 598.355 337.933 609.569 345.993 617.27C354.053 624.971 354.771 621.1 357.523 629.237C360.276 637.373 368.378 642.758 369.489 646.767C370.601 650.775 369.276 652.211 371.797 655.998C374.319 659.784 381.037 671.135 385.174 674.451" stroke="#DFAE30" stroke-miterlimit="10" stroke-linecap="round" stroke-linejoin="round"/>
    <path fill-rule="evenodd" clip-rule="evenodd" d="M380.113 584.048C380.113 584.048 395.088 585.757 409.635 588.663C424.183 591.569 440.063 606.057 441.457 607.117C442.85 608.176 446.517 607.664 448.833 611.271C451.149 614.877 450.662 621.972 456.209 627.416C461.756 632.861 464.491 639.04 467.321 643.562C470.15 648.083 483.894 657.391 483.894 657.391C483.894 657.391 481.107 660.015 471.927 661.545C462.748 663.075 442.867 664.861 430.414 664.314C417.96 663.767 422.79 666.246 407.815 668.468C392.84 670.691 387.302 675.016 385.678 674.93C384.054 674.845 371.361 669.947 364.002 664.776C356.643 659.605 349.472 649.639 347.395 641.699C345.318 633.758 332.864 607.647 329.446 600.176C326.027 592.706 316.975 589.655 315.146 584.954C313.317 580.253 351.985 579.672 380.113 584.048Z" stroke="#DFAE30" stroke-miterlimit="10" stroke-linecap="round" stroke-linejoin="round"/>
    <path d="M306.316 614.963C306.102 612.57 302.615 611.364 298.94 613.117C295.265 614.869 257.178 611.817 245.896 612.193C243.964 612.258 242.275 612.337 240.802 612.443" stroke="#DFAE30" stroke-miterlimit="10" stroke-linecap="round" stroke-linejoin="round"/>
    <path d="M306.317 800.437V617.271C306.317 612.749 305.641 613.724 308.624 610.347C311.607 606.971 329.377 600.193 329.377 600.193" stroke="#DFAE30" stroke-miterlimit="10" stroke-linecap="round" stroke-linejoin="round"/>
    <path d="M232.981 799.052C234.513 800.049 238.051 800.616 241.657 800.938M363.967 664.314C363.967 664.314 326.59 690.007 323.377 691.998C320.163 693.99 320.36 694.392 317.838 696.614C315.317 698.836 311.137 700.17 310.462 701.691C309.787 703.212 309.06 713.777 309.539 717.375C310.017 720.974 309.291 736.606 309.077 737.675C308.864 738.743 319.223 739.521 319.223 739.521C319.223 739.521 309.522 745.128 310.923 752.897C312.325 760.667 310.923 799.052 310.923 799.052C310.923 799.052 306.522 801.36 296.624 801.36H254.05" stroke="#DFAE30" stroke-miterlimit="10" stroke-linecap="round" stroke-linejoin="round"/>
    <path d="M1097.44 756.012C1098.9 756.389 1099.8 756.885 1099.8 757.428C1099.8 758.608 1095.59 759.564 1090.39 759.564C1085.2 759.564 1080.99 758.608 1080.99 757.428C1080.99 756.248 1085.2 755.291 1090.39 755.291C1090.68 755.291 1090.97 755.294 1091.25 755.3" stroke="#DFAE30" stroke-linecap="round" stroke-linejoin="round"/>
    <path d="M295.077 586.056C294.88 579.385 294.115 575.48 293.727 573.379C292.887 568.825 291.727 562.555 291.123 555.399C290.519 548.242 287.808 536.946 287.808 536.946C287.808 536.946 289.203 536.532 288.045 531.032C286.887 525.531 285.914 516.837 285.914 516.837C285.914 516.837 289.754 513.504 289.702 511.632C289.65 509.761 290.465 507.826 290.413 506.191C290.36 504.556 288.019 503.57 287.571 499.567C292.255 498.798 295.515 494.895 296.806 491.997C298.096 489.098 298.2 486.141 298.7 485.609C299.199 485.077 302.962 489.158 302.962 489.158L304.619 487.028C304.619 487.028 309.644 491.187 311.959 490.814C314.275 490.44 313.037 491.346 314.564 490.577C316.091 489.808 319.193 488.98 320.246 485.846C321.3 482.711 324.272 477.092 324.272 477.092C324.272 477.092 322.825 476.442 322.614 473.78C322.404 471.119 320.483 463.844 320.483 463.844C320.483 463.844 321.797 462.011 320.246 457.456C321.852 455.9 321.641 453.021 320.01 450.832C318.378 448.644 321.009 447.421 320.246 446.337C319.484 445.254 315.511 443.735 315.511 443.735C315.511 443.735 316.115 440.719 315.511 436.401C314.907 432.084 312.644 428.968 312.906 427.648C313.169 426.328 317.879 424.572 317.879 424.572C317.879 424.572 322.744 430.466 324.035 433.089C325.325 435.713 329.455 438.353 330.428 439.95C331.401 441.547 330.402 442.531 333.032 442.552C335.663 442.573 334.19 443.558 337.294 443.498C340.399 443.439 339.241 435.041 338.952 433.326C338.663 431.611 340.029 431.807 337.531 430.96C335.033 430.113 330.191 425.282 330.191 425.282C330.191 425.282 336.085 421.476 337.058 420.077C338.031 418.679 338.609 417.139 338.005 416.292C337.401 415.445 333.98 416.056 333.98 416.056C333.98 416.056 336.163 411.539 335.4 410.378C334.638 409.216 331.19 404.679 329.007 403.281C326.824 401.882 328.19 401.367 324.272 400.205C320.353 399.043 321.641 396.479 316.695 395.474C311.749 394.468 309.118 390.269 309.118 390.269C309.118 390.269 318.404 388.594 320.01 387.43C321.615 386.266 324.402 385.045 324.745 382.698C325.089 380.352 323.218 379.446 322.377 378.44C321.537 377.435 322.588 377.868 323.325 377.257C324.061 376.647 323.377 376.055 323.798 374.418C324.22 372.781 324.956 372.663 325.692 370.633C326.429 368.603 324.508 364.719 324.508 364.719C324.508 364.719 331.979 357.129 332.796 356.202C333.613 355.275 335.874 357.385 335.874 357.385C335.874 357.385 336.004 356.734 336.111 355.729C336.217 354.723 332.216 353.108 332.796 351.707C333.376 350.306 330.321 348.376 329.007 348.395C327.693 348.414 325.823 347.113 323.561 348.395C321.3 349.677 313.037 355.156 311.959 354.782C310.882 354.409 311.064 354.21 309.592 352.653C308.119 351.097 305.303 352.159 302.488 351.234C300.639 350.65 298.735 350.254 296.806 350.051L306.987 332.781C306.987 332.781 306.961 331.421 308.644 331.125C310.328 330.829 314.142 326.374 315.274 323.318C316.406 320.261 316.352 320.143 318.352 316.694C320.353 313.244 323.14 312.809 321.667 313.382C320.194 313.954 320.772 312.573 319.773 310.779C318.774 308.986 317.853 311.785 313.38 311.726C308.907 311.667 306.251 316.753 304.146 317.64C302.041 318.527 300.409 316.753 299.647 317.403C298.884 318.054 294.253 321.326 292.78 323.318C291.308 325.31 291.343 328.937 288.992 333.727C291.376 329.687 285.346 322.705 283.309 321.662C281.273 320.619 278.794 319.474 276.443 317.877C274.092 316.28 269.481 319.078 267.682 321.189C265.882 323.299 262.456 322.232 257.974 323.554C253.492 324.877 250.16 328.759 250.16 328.759L245.188 327.34C245.188 327.34 246.592 326.334 246.609 324.028C246.625 321.721 247.698 321.366 247.793 316.93C247.887 312.495 246.988 313.401 247.319 311.489C247.651 309.578 248.486 310.72 251.344 309.36C254.202 308 252.827 303.069 252.765 302.026C252.703 300.983 249.213 302.263 249.213 302.263C249.213 302.263 249.592 299.838 250.634 294.219C251.676 288.6 253.222 286.353 251.818 284.993C250.414 283.632 247.224 280.675 244.478 276.949C241.731 273.223 242.882 270.895 236.664 269.142C230.446 267.389 227.65 266.559 223.405 263.937C219.159 261.316 218.02 265.298 214.407 268.905C210.794 272.513 206.499 269.319 204.936 270.088C203.373 270.857 202.552 275.075 203.042 275.056C203.532 275.037 203.736 275.234 204.462 277.422C205.189 279.61 202.568 283.1 202.568 283.1C202.568 283.1 202.947 284.065 199.727 280.734C196.507 277.403 192.055 275.075 191.677 276.476C191.298 277.876 187.793 276.022 184.81 274.347C181.827 272.672 180.846 275.944 178.417 278.368C175.988 280.793 176.821 279.57 174.865 280.734C172.91 281.898 173.428 283.907 173.918 285.466C174.204 286.471 174.204 287.536 173.918 288.541C173.918 288.541 174.849 288.875 178.417 288.778C179.776 292.781 182.03 296.053 187.415 297.531C192.799 299.01 190.554 302.518 192.86 303.682C195.167 304.846 201.29 307.723 206.357 306.994C208.819 308.395 211.312 314.82 213.934 316.457C216.555 318.094 216.301 319.533 216.301 319.533C216.301 319.533 214.864 321.049 212.039 323.081C209.215 325.113 211.329 326.867 211.329 326.867L212.039 325.21C212.039 325.21 216.048 328.068 217.485 327.576C218.922 327.084 219.379 324.264 219.379 324.264C219.379 324.264 223.31 333.195 225.062 335.856C226.814 338.518 225.204 339.029 226.956 341.534C228.708 344.04 231.438 347.941 232.876 350.051C233.444 355.395 235.244 355.256 235.244 355.256L236.191 360.933C236.191 360.933 234.753 360.479 233.349 361.88C231.867 360.441 224.809 359.848 223.405 359.751C222.001 359.654 218.02 358.35 215.591 358.568C213.162 358.785 209.655 359.928 208.014 359.751C206.373 359.573 204.287 357.718 203.515 357.385C202.743 357.051 201.841 357.877 197.596 358.331C193.351 358.785 197.106 357.877 194.755 358.331C192.403 358.785 185.284 364.482 185.284 364.482C185.284 364.482 178.086 363.24 176.76 363.299C175.434 363.358 175.718 363.869 171.787 368.74C167.857 373.612 160.957 377.04 159.238 379.386C157.519 381.733 158.353 396.439 163.974 399.495C169.595 402.552 170.509 404.641 169.893 407.302C172.356 405.469 175.559 407.007 179.127 406.829C182.696 406.652 186.846 404.324 189.072 403.99C191.298 403.657 190.95 404.087 194.281 403.281C196.26 402.808 198.117 401.921 199.727 400.678C199.727 400.678 200.499 402.826 199.49 403.99C198.481 405.154 199.253 405.646 199.253 405.646C199.253 405.646 197.501 407.48 194.755 410.141C192.008 412.803 191.501 416.47 190.729 418.895C189.958 421.319 187.476 422.621 187.415 422.916C187.353 423.212 187.651 429.54 187.651 429.54C187.651 429.54 185.899 432.95 187.888 434.745C190.114 447.816 201.92 456.214 207.067 458.639C209.215 462.247 211.803 462.898 211.803 462.898C211.803 462.898 211.471 465.677 212.986 467.156C214.975 467.532 217.722 466.92 217.722 466.92C217.722 466.92 217.391 470.092 218.196 472.361C223.736 468.952 221.037 465.737 221.037 465.737L221.984 463.844C221.984 463.844 223.625 462.917 226.72 462.188C229.814 461.459 233.113 457.93 233.113 457.93C233.113 457.93 232.859 458.344 233.586 459.349C234.313 460.355 234.28 461.497 235.244 464.081C236.207 466.664 236.901 467.156 236.901 467.156L238.795 472.834C238.795 472.834 239.174 475.77 236.664 478.275C234.154 480.78 236.015 482.079 239.032 484.899C242.048 487.719 240.689 488.448 240.689 488.448L243.057 487.265C243.057 487.265 240.988 490.123 242.11 492.943C240.547 493.87 236.411 502.11 234.77 505.955C233.129 509.799 227.809 513.622 227.193 517.074C226.577 520.525 226.625 524.585 227.903 529.139C229.182 533.693 232.149 538.779 234.06 541.914C235.97 545.049 238.542 545.323 241.636 546.172C244.731 547.022 246.041 545.167 249.687 545.463C253.333 545.758 256.852 550.291 258.448 550.667C260.044 551.044 260.799 550.213 262.473 549.721C264.147 549.229 266.086 547.925 269.103 546.409C272.119 544.893 276.189 543.274 276.916 540.021C277.643 536.769 278.557 537.28 282.599 533.397C286.326 542.92 287.571 557.528 287.571 557.528C287.571 557.528 289.844 574.422 290.413 579.53C290.647 581.64 290.455 584.83 290.413 587.766" stroke="#DFAE30" stroke-miterlimit="10" stroke-linecap="round" stroke-linejoin="round"/>
    <path d="M226.956 303.209C226.956 303.209 214.568 287.817 185.521 286.412" stroke="#DFAE30" stroke-miterlimit="10" stroke-linecap="round" stroke-linejoin="round"/>
    <path d="M215.827 272.454C215.827 272.454 224.87 291.529 227.666 298.241" stroke="#DFAE30" stroke-miterlimit="10" stroke-linecap="round" stroke-linejoin="round"/>
    <path d="M215.592 394.29C217.559 390.408 215.613 387.498 221.748 384.827C227.883 382.156 230.684 378.331 230.746 374.654C230.807 370.978 234.771 374.654 234.771 374.654" stroke="#DFAE30" stroke-miterlimit="10" stroke-linecap="round" stroke-linejoin="round"/>
    <path d="M280.231 399.495C280.231 399.495 270.871 399.299 265.551 402.334" stroke="#DFAE30" stroke-miterlimit="10" stroke-linecap="round" stroke-linejoin="round"/>
    <path d="M297.516 431.432C303.248 431.16 302.337 430.886 306.75 429.303C311.164 427.721 312.67 427.647 312.67 427.647" stroke="#DFAE30" stroke-miterlimit="10" stroke-linecap="round" stroke-linejoin="round"/>
    <path d="M292.307 417.002C292.307 417.002 306.021 416.257 324.508 417.948" stroke="#DFAE30" stroke-miterlimit="10" stroke-linecap="round" stroke-linejoin="round"/>
    <path d="M260.579 503.825L252.055 539.548" stroke="#DFAE30" stroke-miterlimit="10" stroke-linecap="round" stroke-linejoin="round"/>
    <path d="M270.287 490.34L271.471 494.599" stroke="#DFAE30" stroke-miterlimit="10" stroke-linecap="round" stroke-linejoin="round"/>
    <path d="M259.631 445.864C259.631 445.864 262.186 471.251 262.235 479.694" stroke="#DFAE30" stroke-miterlimit="10" stroke-linecap="round" stroke-linejoin="round"/>
    <path d="M284.493 528.43L287.808 537.419" stroke="#DFAE30" stroke-miterlimit="10" stroke-linecap="round" stroke-linejoin="round"/>
    <path d="M280.941 510.923L282.836 518.256" stroke="#DFAE30" stroke-miterlimit="10" stroke-linecap="round" stroke-linejoin="round"/>
    <path d="M280.468 501.932C280.872 507.418 282.549 505.672 281.651 509.503C280.754 513.333 279.116 510.759 281.888 516.6C284.661 522.441 286.1 528.502 282.362 533.16" stroke="#DFAE30" stroke-miterlimit="10" stroke-linecap="round" stroke-linejoin="round"/>
    <path d="M317.879 424.573C320.247 424.435 321.904 426.484 324.982 426.465C326.885 426.435 328.753 425.949 330.428 425.046" stroke="#DFAE30" stroke-miterlimit="10" stroke-linecap="round" stroke-linejoin="round"/>
    <path d="M271.943 405.883C272.308 405.982 274.074 404.482 275.258 403.99C276.442 403.498 279.994 402.098 279.994 402.098" stroke="#DFAE30" stroke-miterlimit="10" stroke-linecap="round" stroke-linejoin="round"/>
    <path d="M255.844 393.817C258.576 393.089 258.922 394.073 261.29 393.817C263.657 393.562 264.003 393.008 266.499 394.054C268.994 395.1 273.237 391.825 276.207 392.634C279.176 393.443 282.6 395.71 282.6 395.71" stroke="#DFAE30" stroke-miterlimit="10" stroke-linecap="round" stroke-linejoin="round"/>
    <path d="M274.074 407.302C277.517 405.035 280.576 401.406 282.598 399.258C284.62 397.11 292.889 395.965 295.384 394.054C296.879 392.906 298.561 392.026 300.356 391.451" stroke="#DFAE30" stroke-miterlimit="10" stroke-linecap="round" stroke-linejoin="round"/>
    <path d="M288.519 459.822C288.519 459.822 299.046 471.197 300.121 474.726C301.196 478.256 306.623 483.38 310.776 484.662" stroke="#DFAE30" stroke-miterlimit="10" stroke-linecap="round" stroke-linejoin="round"/>
    <path d="M298.699 485.135C298.699 481.094 298.699 480.068 296.805 475.909C294.911 471.75 287.334 465.263 287.334 465.263" stroke="#DFAE30" stroke-miterlimit="10" stroke-linecap="round" stroke-linejoin="round"/>
    <path d="M315.511 443.261C315.402 444.189 313.854 447.52 313.854 447.52" stroke="#DFAE30" stroke-miterlimit="10" stroke-linecap="round" stroke-linejoin="round"/>
    <path d="M296.806 436.401C296.806 436.401 310.175 444.463 311.96 448.23C313.745 451.996 317.169 457.238 318.826 457.456C320.484 457.674 320.957 456.746 320.957 456.746" stroke="#DFAE30" stroke-miterlimit="10" stroke-linecap="round" stroke-linejoin="round"/>
    <path d="M287.808 446.1C292.544 448.447 299.282 443.99 302.015 445.154C304.747 446.318 311.012 447.993 311.012 447.993" stroke="#DFAE30" stroke-miterlimit="10" stroke-linecap="round" stroke-linejoin="round"/>
    <path d="M243.53 486.792C248.867 493.16 257.5 493.908 263.183 491.287C268.865 488.665 269.576 492.37 274.785 488.684C279.994 484.998 288.281 464.218 288.281 462.424C288.368 459.827 287.883 457.243 286.86 454.854C285.44 451.405 284.602 449.195 282.125 448.939" stroke="#DFAE30" stroke-miterlimit="10" stroke-linecap="round" stroke-linejoin="round"/>
    <path d="M239.032 472.833C240.453 479.439 240.926 479.95 243.768 487.028C246.609 494.106 245.297 498.757 257.264 503.115C269.231 507.473 279.284 503.489 283.546 499.33C287.808 495.171 292.07 484.444 291.597 478.038C291.123 471.632 286.861 466.682 286.861 466.682" stroke="#DFAE30" stroke-miterlimit="10" stroke-linecap="round" stroke-linejoin="round"/>
    <path d="M248.267 396.656C248.74 396.637 260.105 406.138 266.025 421.26C271.944 436.382 277.864 442.315 277.864 442.315" stroke="#DFAE30" stroke-miterlimit="10" stroke-linecap="round" stroke-linejoin="round"/>
    <path d="M248.74 395.946C250.999 395.573 254.423 392.89 257.501 394.764C260.579 396.637 263.42 399.632 264.841 401.624C266.262 403.616 268.156 403.418 269.813 404.936C271.471 406.455 272.418 408.031 275.259 408.012C278.101 407.993 281.415 405.902 284.02 410.614C286.625 415.327 289.466 415.246 291.834 417.238C294.201 419.23 292.653 421.752 295.149 425.282C297.644 428.812 298.572 427.193 297.516 432.852C296.46 438.511 294.912 444.227 291.36 446.101C287.808 447.974 284.257 446.593 282.599 448.466C280.942 450.34 281.051 448.722 278.574 449.413C276.097 450.103 269.813 452.034 265.551 449.176C261.289 446.318 260.688 445.765 257.975 443.735C255.261 441.705 251.582 436.874 251.582 436.874" stroke="#DFAE30" stroke-miterlimit="10" stroke-linecap="round" stroke-linejoin="round"/>
    <path d="M253.712 393.817C254.185 391.669 256.316 389.322 256.316 389.322C256.316 389.322 259.03 385.556 261.526 386.956C264.021 388.357 266.498 388.631 274.548 389.085C282.599 389.54 285.549 389.341 292.78 390.505C300.011 391.669 304.856 391.825 309.118 390.268" stroke="#DFAE30" stroke-miterlimit="10" stroke-linecap="round" stroke-linejoin="round"/>
    <path d="M248.74 385.3C248.74 385.3 263.657 368.877 306.277 371.816" stroke="#DFAE30" stroke-miterlimit="10" stroke-linecap="round" stroke-linejoin="round"/>
    <path d="M311.959 354.782C313.034 355 318.589 358.113 320.247 360.46C321.904 362.807 324.745 364.719 324.745 364.719" stroke="#DFAE30" stroke-miterlimit="10" stroke-linecap="round" stroke-linejoin="round"/>
    <path d="M299.41 345.083C299.301 340.924 300.94 335.166 302.251 333.017C303.563 330.869 306.513 331.262 308.407 328.522C310.302 325.783 314.327 319.078 315.511 316.694C316.695 314.309 321.193 313.618 321.193 313.618" stroke="#DFAE30" stroke-miterlimit="10" stroke-linecap="round" stroke-linejoin="round"/>
    <path d="M250.161 328.522C250.763 328.622 261.29 331.025 274.312 352.18" stroke="#DFAE30" stroke-miterlimit="10" stroke-linecap="round" stroke-linejoin="round"/>
    <path d="M286.726 348.631C287.327 348.139 288.857 344.846 288.857 344.846C288.857 344.846 288.083 344.021 287.91 342.716C287.327 338.321 287.545 337.176 287.673 336.092C287.801 335.009 289.094 333.253 289.094 333.253" stroke="#DFAE30" stroke-miterlimit="10" stroke-linecap="round" stroke-linejoin="round"/>
    <path d="M242.583 378.203C242.948 375.464 241.982 372.899 246.371 371.579C250.761 370.259 254.294 370.652 255.843 368.267C257.391 365.883 256.553 365.211 260.578 363.063C264.603 360.915 271.105 357.522 272.417 354.782C273.729 352.043 282.835 348.059 288.281 349.578C293.727 351.097 297.042 350.051 297.042 350.051" stroke="#DFAE30" stroke-miterlimit="10" stroke-linecap="round" stroke-linejoin="round"/>
    <path d="M245.188 342.717C246.352 343.793 244.674 344.953 248.266 344.61C251.858 344.267 252.724 344.894 255.132 347.449C257.54 350.004 257.874 349.152 260.578 351.707C263.282 354.262 262.669 353.765 264.603 355.965C266.538 358.165 267.918 359.041 267.918 359.041" stroke="#DFAE30" stroke-miterlimit="10" stroke-linecap="round" stroke-linejoin="round"/>
    <path d="M237.849 351.47C237.849 351.47 238.223 350.867 237.612 347.685C237.001 344.503 237.098 343.829 236.665 342.717C236.231 341.605 235.718 337.749 235.718 337.749C235.718 337.749 236.21 335.43 235.954 333.727C235.699 332.024 235.441 331.598 235.244 331.125C235.047 330.651 234.297 326.393 234.297 326.393" stroke="#DFAE30" stroke-miterlimit="10" stroke-linecap="round" stroke-linejoin="round"/>
    <path d="M233.112 327.103C233.112 327.103 234.197 331.645 234.059 332.071C233.922 332.496 233.546 333.123 233.823 335.146C234.1 337.169 234.729 341.226 234.77 343.663C234.81 346.1 235.243 349.577 235.243 349.577" stroke="#DFAE30" stroke-miterlimit="10" stroke-linecap="round" stroke-linejoin="round"/>
    <path d="M230.508 306.521C230.508 306.521 229.58 308.342 230.982 308.887" stroke="#DFAE30" stroke-miterlimit="10" stroke-linecap="round" stroke-linejoin="round"/>
    <path d="M232.166 310.543L231.693 309.123C231.693 309.123 234.257 309.407 232.166 300.843C231.851 303.445 231.456 304.392 231.456 304.392" stroke="#DFAE30" stroke-miterlimit="10" stroke-linecap="round" stroke-linejoin="round"/>
    <path d="M225.299 304.392C225.299 304.392 230.468 309.36 230.034 311.252" stroke="#DFAE30" stroke-miterlimit="10" stroke-linecap="round" stroke-linejoin="round"/>
    <path d="M232.876 349.813C233.419 349.854 236.004 354.386 236.902 353.125C237.799 351.864 232.808 349.182 230.035 340.587" stroke="#DFAE30" stroke-miterlimit="10" stroke-linecap="round" stroke-linejoin="round"/>
    <path d="M237.611 357.148C237.611 357.148 236.24 354.505 236.901 353.126C237.561 351.747 238.321 351.47 238.321 351.47C238.321 351.47 242.515 353.914 244.478 347.448C246.44 340.982 245.001 337.708 244.241 334.2C243.481 330.691 244.241 328.995 244.241 328.995L245.425 327.576" stroke="#DFAE30" stroke-miterlimit="10" stroke-linecap="round" stroke-linejoin="round"/>
    <path d="M202.568 283.1C202.568 283.1 224.295 294.765 226.956 298.004C229.618 301.243 229.798 301.553 229.798 301.553" stroke="#DFAE30" stroke-miterlimit="10" stroke-linecap="round" stroke-linejoin="round"/>
    <path d="M207.067 306.757C208.661 306.684 213.285 303.873 214.171 303.918C215.056 303.963 221.691 302.927 222.931 303.445C224.172 303.963 226.308 304.11 227.904 305.811C229.5 307.512 233.293 305.293 232.639 304.865C231.986 304.436 226.483 303.445 226.483 303.445" stroke="#DFAE30" stroke-miterlimit="10" stroke-linecap="round" stroke-linejoin="round"/>
    <path d="M232.166 310.542C232.166 310.542 230.456 316.414 237.375 320.952" stroke="#DFAE30" stroke-miterlimit="10" stroke-linecap="round" stroke-linejoin="round"/>
    <path d="M218.906 324.264C220.497 323.124 222.287 322.447 227.193 324.737C232.099 327.027 231.167 328.125 234.297 326.156C237.427 324.188 239.743 324.974 239.743 324.974C239.743 324.974 238.98 323.157 241.4 321.188C243.82 319.22 246.675 314.403 247.319 311.016" stroke="#DFAE30" stroke-miterlimit="10" stroke-linecap="round" stroke-linejoin="round"/>
    <path d="M216.775 319.296C216.775 319.296 229.746 310.145 231.929 311.016C235.178 308.693 249.451 302.026 249.451 302.026" stroke="#DFAE30" stroke-miterlimit="10" stroke-linecap="round" stroke-linejoin="round"/>
    <path d="M239.269 358.805C239.269 358.805 240.026 356.538 246.135 356.439C252.244 356.34 253.049 356.42 255.133 356.676C257.216 356.931 265.551 360.461 265.551 360.461" stroke="#DFAE30" stroke-miterlimit="10" stroke-linecap="round" stroke-linejoin="round"/>
    <path d="M235.006 369.687C238.747 368.996 239.316 365.764 240.926 364.955C242.536 364.146 244.288 365.646 243.53 367.321C242.773 368.996 242.039 369.431 238.795 371.106C235.551 372.781 235.054 374.399 235.48 374.891C235.906 375.384 234.77 375.601 234.77 375.601" stroke="#DFAE30" stroke-miterlimit="10" stroke-linecap="round" stroke-linejoin="round"/>
    <path d="M233.586 361.88C235.432 362.727 237.658 366.238 236.664 368.031C235.669 369.824 235.243 369.924 235.243 369.924C235.243 369.924 227.358 366.356 216.774 369.924C206.19 373.491 193.973 380.551 175.575 401.388" stroke="#DFAE30" stroke-miterlimit="10" stroke-linecap="round" stroke-linejoin="round"/>
    <path d="M228.377 382.225C229.75 379.76 228.898 379.367 230.271 378.677C231.644 377.986 230.792 378.658 232.876 377.257C234.959 375.857 234.936 375.109 235.717 375.365C236.498 375.62 237.303 376.41 238.085 376.784C238.866 377.158 238.961 377.711 239.505 379.386C240.05 381.061 240.689 383.881 240.689 383.881" stroke="#DFAE30" stroke-miterlimit="10" stroke-linecap="round" stroke-linejoin="round"/>
    <path d="M238.795 385.301C237.327 383.309 239.198 382.088 237.138 381.279C235.078 380.47 236.12 379.131 231.929 380.806C227.738 382.481 229.727 381.851 224.825 385.301C219.924 388.75 221.084 390.368 218.196 391.925C215.307 393.481 216.467 394.981 212.987 396.656C209.506 398.331 207.233 399.24 203.515 399.732C199.798 400.224 199.49 400.678 199.49 400.678" stroke="#DFAE30" stroke-miterlimit="10" stroke-linecap="round" stroke-linejoin="round"/>
    <path d="M233.112 457.93C235.669 455.524 238.131 454.303 241.636 450.123C245.14 445.942 248.786 440.108 250.87 437.348C252.954 434.587 254.824 426.269 254.422 421.97C254.019 417.672 249.97 402.493 248.265 397.366C246.561 392.24 245.59 390.901 247.081 387.667C248.573 384.433 248.786 380.373 246.371 379.387C243.956 378.4 243.459 377.771 242.583 379.15C241.707 380.529 241.683 379.9 241.399 381.989C241.115 384.078 239.67 385.341 239.031 385.538C238.392 385.734 220.965 404.8 220.089 453.435" stroke="#DFAE30" stroke-miterlimit="10" stroke-linecap="round" stroke-linejoin="round"/>
    <path fill-rule="evenodd" clip-rule="evenodd" d="M1286.3 735.248V176.26L1623.92 28.3938L1624.77 882.217L1286.3 735.248Z" stroke="#DFAE30" stroke-miterlimit="10" stroke-linecap="round" stroke-linejoin="round"/>
</svg>
